<svg height='100px' width='100px'  fill="#000000" xmlns="http://www.w3.org/2000/svg" xmlns:xlink="http://www.w3.org/1999/xlink" version="1.1" x="0px" y="0px" viewBox="0 0 64 64" enable-background="new 0 0 64 64" xml:space="preserve"><g><path fill-rule="evenodd" clip-rule="evenodd" d="M42.398,9.206c-1.222,0.804-1.772,0.428-2.88,0.72   c0.252,0.19-1.02,0.887-1.44,1.2c-0.316-0.601,0.949-0.751,0.24-0.96c-0.414,0.815-0.863,1.062-1.92,0.72   c-0.896,0.697-0.287,1.579-1.44,2.16c0.269-0.346,0.259-0.586-0.239-0.72c-0.251,1.109-1.309,1.412-1.44,2.64   c-0.49-0.513-0.95,0.067-1.44,0.24c-2.167-2.288-4.205-4.264-7.2-4.8c0.282-0.038,0.681,0.042,0.72-0.24   c-1.289-0.562-2.159-0.522-3.6-1.2c-0.96,0-1.92,0-2.88,0c-8.242,0.941-11.815,5.658-13.44,12.96c0,0.56,0,1.12,0,1.68   c0.268,4.206,2.495,7.9,4.8,10.32c2.598,1.643,3.838,4.642,6.72,6c3.285,5.117,10.071,8.807,13.92,14.159   c2.341,0.305,4.016-2.009,6.48-4.56c2.188-2.266,4.676-5.014,7.44-7.68c4.804-4.635,12.284-10.535,12.96-16.8   C58.87,14.725,51.015,9.555,42.398,9.206z M47.198,35.605c-0.56,1.2-1.797,1.723-2.399,2.88c-0.315,0.288-0.378,0.094-0.721,0   c-0.007,0.074-0.533,1.477-0.96,0.96c0.215,0.557-1.79,1.541-1.439,2.16c-1.72,0.409-2.95,1.13-2.641,2.399   c-0.018-1.018-1.878,0.524-1.68,1.921c-3.162-0.477-3.193,5.417-7.2,3.84c-0.132-0.532,0.458-0.342,0.48-0.721   c-6.98-6.879-13.352-13.087-20.16-19.68c-0.591-1.729-1.077-3.563-1.92-5.04c-0.045-6.076,4.836-12.438,12-12.24   c1.446,0.04,2.679,1.09,4.32,0.96c2.298,2.102,4.5,4.3,6.96,6.24c4.784-2.639,6.125-7.995,14.16-7.2   c6.29,0.622,10.044,6.227,9.841,11.76C55.638,29.298,51.249,32.709,47.198,35.605z"></path></g></svg>