<svg height='100px' width='100px'  fill="#000000" xmlns="http://www.w3.org/2000/svg" xmlns:xlink="http://www.w3.org/1999/xlink" version="1.1" x="0px" y="0px" viewBox="0 0 64 64" enable-background="new 0 0 64 64" xml:space="preserve"><g><g><path fill-rule="evenodd" clip-rule="evenodd" d="M56.819,9.154c-6.997-0.822-13.866-0.146-19.432-0.932    c0.158,0.042,0.241,0.126-0.009,0.212c-3.537-0.186-4.089-0.159-6.48,0.24c0.027-0.453,0.793-0.167,0.72-0.72    c-0.728,0.424-1.752,0.732-2.16-0.24c-0.72,0-1.44,0-2.16,0c0.053,0.187,0.201,0.279,0.48,0.24    c-1.164,0.599-2.453,0.701-1.68-0.24c-0.16,0-0.32,0-0.48,0c-0.836,0.987-2.808-0.297-3.6,0.96c-0.5-0.224-0.457-0.747-1.44-0.96    c-0.08,0-0.16,0-0.24,0c-0.501,0.379-1.262,0.498-2.16,0.48c0-0.16,0-0.32,0-0.48c-0.88,0-1.76,0-2.64,0    c-2.705,1.102-5.679-0.423-8.64,0.72c-1.296,1.248-0.024,2.674-0.24,3.84c-0.495-0.128-0.058-1.136-0.72-0.48c0,2.4,0,4.8,0,7.2    c0.448,8.559,0.339,20.323,0.24,27.36c0.333,0.388,0.68,0.76,0.96,1.2c6.08-0.181,12.988,0.64,20.16-0.24    c0.04,0.962,2.663-0.073,3.12,0.24c-0.437,1.324,0.51,3.599-0.48,4.8c-2.693,0.737-10.853-1.914-9.12,2.88    c6.362,0.727,14.07-0.064,19.44-0.24c1.289-0.042,3.383,0.606,3.12-1.439c-1.176-1.344-8.291-0.408-10.32-0.721    c0-1.92,0-3.84,0-5.76c8.707-0.158,15.505,0.365,23.521,0C57.533,35.465,57.062,21.163,56.819,9.154z M54.899,44.914    c-5.151-0.105-9.276-0.326-13.44-0.479c-0.427-0.438-2.583,0.291-4.32-0.48c1.853,0.704,0.396-0.042-0.239,0.96    c-1.09-0.298,0.414-0.697-0.24-1.199c-0.281,0.038-0.203,0.438-0.24,0.72c-1.911-1.274-1.767-0.276-3.84,0    c1.626-1.049-1.832-0.337-2.64,0.24c-0.059-1.401-1.172-0.689-1.92-0.48c-2.635-0.469-7.184-0.294-10.08,0.48    c0.18-0.454,0.716-0.167,0.24-0.721c-2.402,0.038-5.382,0.203-8.16,0.24c-0.709-12.516-0.12-22.532-0.48-32.16    c7.254-0.747,15.696-0.658,23.28-0.72c7.022-0.057,14.363-0.654,22.081,0C54.846,21.609,54.938,33.835,54.899,44.914z"></path><path fill-rule="evenodd" clip-rule="evenodd" d="M34.979,23.554c-1.017-2.505-0.729-5.313-3.12-6.72    c-2.042,1.398-1.607,5.272-3.36,6.96c-2.281,0.199-5.428-0.468-6.96,0.48c0.49,3.11,3.901,3.299,5.52,5.28    c-0.54,2.582-2.347,5.172-2.64,7.2c0.47-0.453,0.931,1.138,1.92,0.961c0.823-0.267,0.256-0.6,0.96-0.721    c0.317,0.601-0.949,0.752-0.24,0.96c0.506-0.423,0.417-0.833,1.2-0.479c0.415-0.146-0.018-1.139,0.48-1.2    c0.054,0.187,0.007,0.474,0.24,0.479c0.062-0.95,0.754-0.682,0.72-1.439c1.089,0.475,2.702-1.449,4.081-0.48    c-0.014,0.308-0.308,0.333-0.24,0.721c1.777,0.956,5.509,4.399,6.24,0.239c-0.56-1.504-1.695-3.906-2.16-6.24    c2.255-0.864,3.502-2.738,5.52-3.84C43.411,21.403,37.205,23.849,34.979,23.554z M34.019,28.354    c0.027,1.609,0.157,2.038,0.721,3.36c-1.024-0.416-1.755-1.125-3.12-1.2c-0.736,1.185-2.466,1.375-3.12,2.64    c-0.316-1.122,1.098-2.578,0.96-4.32c-0.966-1.114-2.372-1.789-3.6-2.64c2.158-0.482,5.569,0.289,5.76-2.16    c0.8,2.225,1.914,2.614,4.08,2.88C35.079,27.334,34.857,28.153,34.019,28.354z"></path></g></g></svg>