<?xml version="1.0" encoding="utf-8"?>
<!-- Generator: Adobe Illustrator 16.0.0, SVG Export Plug-In . SVG Version: 6.00 Build 0)  -->
<!DOCTYPE svg PUBLIC "-//W3C//DTD SVG 1.1//EN" "http://www.w3.org/Graphics/SVG/1.1/DTD/svg11.dtd">
<svg version="1.1" id="Layer_1" xmlns="http://www.w3.org/2000/svg" xmlns:xlink="http://www.w3.org/1999/xlink" x="0px" y="0px"
	 width="1200px" height="630px" viewBox="0 0 1200 630" enable-background="new 0 0 1200 630" xml:space="preserve">
<rect fill="#0096DC" width="1200" height="630"/>
<text transform="matrix(1 0 0 1 1094.9619 27.6802)"><tspan x="0" y="0" fill="#FFFFFF" font-family="'UniversLTStd-Bold'" font-size="12">g</tspan><tspan x="7.104" y="0" fill="#FFFFFF" font-family="'UniversLTStd-Bold'" font-size="12">etmesh.io</tspan></text>
<g>
	<path fill="#FFFFFF" d="M1174.287,12.637c-0.08,0.023-0.2,0.065-0.27,0.1c-0.092,0.05-7.745,4.553-8.396,4.942
		c-0.165,0.1-0.415,0.377-0.523,0.581l-0.088,0.165l-0.012,5.238l-0.008,5.239l0.081,0.215c0.169,0.457,0.077,0.392,4.665,3.096
		c2.3,1.358,4.266,2.507,4.364,2.55c0.25,0.115,0.759,0.115,1.009,0c0.131-0.058,7.207-4.215,8.48-4.977
		c0.165-0.1,0.415-0.377,0.523-0.581l0.088-0.165l0.012-5.238c0.008-5.211,0.008-5.239-0.069-5.45c-0.234-0.627-0.988-1-1.635-0.812
		c-0.158,0.047-1.068,0.558-2.941,1.662c-2.978,1.75-3.023,1.781-3.188,2.223c-0.108,0.288-0.108,0.708,0,1
		c0.104,0.277,0.399,0.6,0.677,0.734c0.288,0.143,0.711,0.17,1.012,0.066c0.115-0.039,0.923-0.488,1.792-1.004
		c0.873-0.512,1.592-0.931,1.607-0.931c0.012,0,0.02,1.473,0.016,3.273l-0.012,3.273l-3.415,2.015
		c-1.877,1.108-3.431,2.016-3.45,2.016s-1.573-0.908-3.45-2.016l-3.415-2.015v-4.103v-4.104l3.415-2.015
		c1.877-1.108,3.431-2.016,3.45-2.016s0.708,0.396,1.527,0.881c0.992,0.585,1.569,0.904,1.718,0.946
		c0.623,0.181,1.305-0.135,1.604-0.742c0.077-0.154,0.093-0.242,0.093-0.566c0-0.338-0.012-0.411-0.1-0.6
		c-0.059-0.123-0.17-0.284-0.254-0.369c-0.143-0.142-3.708-2.281-4.073-2.442C1174.922,12.621,1174.499,12.583,1174.287,12.637"/>
	<path fill="#FFFFFF" d="M1174.003,22.44c-0.854,0.315-1.192,1.35-0.696,2.127c0.308,0.488,0.958,0.738,1.53,0.592
		c0.442-0.115,0.766-0.381,0.958-0.792c0.089-0.185,0.1-0.261,0.1-0.596c0-0.343-0.011-0.408-0.107-0.604
		c-0.139-0.281-0.392-0.535-0.669-0.669C1174.826,22.353,1174.307,22.325,1174.003,22.44"/>
</g>
<g>
	<path opacity="0.7" fill="#80CBEE" d="M1126.009,79.154H686.711h-22.939H359.796V46.308c0-1.484-1.668-2.687-3.727-2.687H59.549
		c-2.06,0-3.728,1.203-3.728,2.687v33.036c0,0.475,0.186,0.915,0.485,1.301c-0.299,0.394-0.485,0.836-0.485,1.313v515.235
		c0,1.551,1.788,2.806,3.991,2.806h1066.196c2.205,0,3.991-1.255,3.991-2.806V81.959C1130,80.41,1128.214,79.154,1126.009,79.154z"
		/>
	<text transform="matrix(1 0 0 1 70.8613 67.6958)"><tspan x="0" y="0" fill="#FFFFFF" font-family="'UniversLTStd-Bold'" font-size="18">PROJECT </tspan><tspan x="86.021" y="0" fill="#FFFFFF" font-family="'UniversLTStd-Light'" font-size="18">demo</tspan></text>
</g>
<g>
	<g>
		<path fill="#36A9E1" d="M154.535,434.225c1.429-0.825,3.767-0.825,5.196,0l52.74,30.448c1.429,0.825,2.598,2.85,2.598,4.5v60.9
			c0,1.65-1.169,3.675-2.598,4.5l-52.74,30.453c-1.429,0.825-3.767,0.825-5.196,0l-52.741-30.453c-1.429-0.825-2.598-2.85-2.598-4.5
			v-60.9c0-1.65,1.169-3.675,2.598-4.5L154.535,434.225z"/>
	</g>
	<text transform="matrix(1 0 0 1 125.1426 482.9941)"><tspan x="0" y="0" fill="#FFFFFF" font-family="'UniversLTStd-Bold'" font-size="22.1456">NODE</tspan><tspan x="5.064" y="23.253" fill="#FFFFFF" font-family="'UniversLTStd-Light'" font-size="19.3774">name:</tspan><tspan x="-0.312" y="46.506" fill="#FFFFFF" font-family="'UniversLTStd-Light'" font-size="19.3774">Trabant</tspan></text>
</g>
<g>
	<path fill="#36A9E1" d="M237.151,61.224c1.429-0.825,3.767-0.825,5.196,0l52.741,30.45c1.429,0.825,2.598,2.85,2.598,4.5v60.9
		c0,1.65-1.169,3.675-2.598,4.5l-52.741,30.453c-1.429,0.825-3.767,0.825-5.196,0l-52.741-30.453c-1.429-0.825-2.598-2.85-2.598-4.5
		v-60.9c0-1.65,1.169-3.675,2.598-4.5L237.151,61.224z"/>
</g>
<text transform="matrix(1 0 0 1 207.7598 109.9961)"><tspan x="0" y="0" fill="#FFFFFF" font-family="'UniversLTStd-Bold'" font-size="22.1456">NODE</tspan><tspan x="5.064" y="23.253" fill="#FFFFFF" font-family="'UniversLTStd-Light'" font-size="19.3774">name:</tspan><tspan x="7.215" y="46.506" fill="#FFFFFF" font-family="'UniversLTStd-Light'" font-size="19.3774">demo</tspan></text>
<g>
	<g>
		<g>
			<path fill="#36A9E1" d="M162.678,250.632c1.429-0.825,3.767-0.825,5.196,0l52.74,30.45c1.429,0.825,2.598,2.85,2.598,4.5v60.899
				c0,1.65-1.169,3.675-2.598,4.5l-52.74,30.455c-1.429,0.825-3.767,0.825-5.196,0l-52.741-30.455
				c-1.429-0.825-2.598-2.85-2.598-4.5v-60.899c0-1.65,1.169-3.675,2.598-4.5L162.678,250.632z"/>
		</g>
	</g>
	<text transform="matrix(1 0 0 1 133.2861 299.4053)"><tspan x="0" y="0" fill="#FFFFFF" font-family="'UniversLTStd-Bold'" font-size="22.1456">NODE</tspan><tspan x="5.063" y="23.253" fill="#FFFFFF" font-family="'UniversLTStd-Light'" font-size="19.3774">name:</tspan><tspan x="-22.394" y="46.506" fill="#FFFFFF" font-family="'UniversLTStd-Light'" font-size="19.3774">Automobiles</tspan></text>
</g>
<g>
	<g>
		<line fill="none" stroke="#FFFFFF" stroke-miterlimit="10" x1="239.576" y1="193.395" x2="172.363" y2="243.816"/>
		<g>
			<polygon fill="#FFFFFF" points="172.205,240.303 165.275,249.131 175.692,244.951 			"/>
		</g>
	</g>
</g>
<g>
	<g>
		<line fill="none" stroke="#FFFFFF" stroke-miterlimit="10" x1="166.218" y1="383.979" x2="160.512" y2="423.089"/>
		<g>
			<polygon fill="#FFFFFF" points="157.923,420.709 159.23,431.855 163.672,421.548 			"/>
		</g>
	</g>
</g>
<g>
	<g>
		<line fill="none" stroke="#FFFFFF" stroke-miterlimit="10" x1="165.717" y1="383.979" x2="350.812" y2="430.562"/>
		<g>
			<polygon fill="#FFFFFF" points="348.181,432.896 359.403,432.727 349.6,427.262 			"/>
		</g>
	</g>
</g>
<g>
	<g>
		<line fill="none" stroke="#FFFFFF" stroke-miterlimit="10" x1="239.576" y1="193.395" x2="365.231" y2="245.943"/>
		<g>
			<polygon fill="#FFFFFF" points="362.282,247.859 373.404,249.363 364.524,242.498 			"/>
		</g>
	</g>
</g>
<g>
	<g>
		<line fill="none" stroke="#FFFFFF" stroke-miterlimit="10" x1="239.576" y1="193.395" x2="579.936" y2="249.911"/>
		<g>
			<polygon fill="#FFFFFF" points="577.505,252.452 588.675,251.364 578.457,246.72 			"/>
		</g>
	</g>
</g>
<g>
	<polygon fill="#36A9E1" points="1073.082,219.531 881,219.531 881,411.531 1103,411.531 1103,251.564 	"/>
	<text transform="matrix(1 0 0 1 896 248.0913)"><tspan x="0" y="0" fill="#FFFFFF" font-family="'UniversLTStd-Bold'" font-size="22">SCHEMA</tspan><tspan x="0" y="22.8" fill="#FFFFFF" font-family="'UniversLTStd-Light'" font-size="19">category</tspan><tspan x="0" y="42" fill="#FFFFFF" font-family="'UniversLTStd-Light'" font-size="16">{   ....</tspan><tspan x="0" y="61.2" fill="#FFFFFF" font-family="'UniversLTStd-Light'" font-size="16">    &quot;name&quot; : &quot;category&quot;,</tspan><tspan x="0" y="80.4" fill="#FFFFFF" font-family="'UniversLTStd-Light'" font-size="16">    &quot;displayField&quot; : &quot;name&quot;,</tspan><tspan x="0" y="99.6" fill="#FFFFFF" font-family="'UniversLTStd-Light'" font-size="16">    &quot;segmentField&quot; : &quot;slug&quot;,</tspan><tspan x="0" y="118.799" fill="#FFFFFF" font-family="'UniversLTStd-Light'" font-size="16">    &quot;container&quot; : true,</tspan><tspan x="0" y="138" fill="#FFFFFF" font-family="'UniversLTStd-Light'" font-size="16">    ...</tspan><tspan x="0" y="157.2" fill="#FFFFFF" font-family="'UniversLTStd-Light'" font-size="16">}</tspan></text>
</g>
<g>
	<polygon fill="#36A9E1" points="805.082,401.191 613,401.191 613,593.191 835,593.191 835,433.225 	"/>
	<text transform="matrix(1 0 0 1 628 429.752)"><tspan x="0" y="0" fill="#FFFFFF" font-family="'UniversLTStd-Bold'" font-size="22">SCHEMA</tspan><tspan x="0" y="22.8" fill="#FFFFFF" font-family="'UniversLTStd-Light'" font-size="19">vehicle</tspan><tspan x="0" y="42" fill="#FFFFFF" font-family="'UniversLTStd-Light'" font-size="16">{   ....</tspan><tspan x="0" y="61.2" fill="#FFFFFF" font-family="'UniversLTStd-Light'" font-size="16">    &quot;name&quot; : vehicle,</tspan><tspan x="0" y="80.4" fill="#FFFFFF" font-family="'UniversLTStd-Light'" font-size="16">    &quot;displayField&quot; : &quot;name&quot;,</tspan><tspan x="0" y="99.6" fill="#FFFFFF" font-family="'UniversLTStd-Light'" font-size="16">    &quot;segmentField&quot; : &quot;slug&quot;,</tspan><tspan x="0" y="118.8" fill="#FFFFFF" font-family="'UniversLTStd-Light'" font-size="16">    &quot;container&quot; : false,</tspan><tspan x="0" y="138" fill="#FFFFFF" font-family="'UniversLTStd-Light'" font-size="16">    ...</tspan><tspan x="0" y="157.2" fill="#FFFFFF" font-family="'UniversLTStd-Light'" font-size="16">}</tspan></text>
</g>
<g>
	<g>
		
			<line fill="none" stroke="#FFFFFF" stroke-width="2" stroke-miterlimit="10" x1="417.014" y1="499.795" x2="419.014" y2="499.795"/>
		
			<line fill="none" stroke="#FFFFFF" stroke-width="2" stroke-miterlimit="10" stroke-dasharray="4.0371,2.0186" x1="421.033" y1="499.795" x2="595.639" y2="499.795"/>
		
			<line fill="none" stroke="#FFFFFF" stroke-width="2" stroke-miterlimit="10" x1="596.648" y1="499.795" x2="598.648" y2="499.795"/>
		<g>
			<polygon fill="#FFFFFF" points="595.73,509.767 613,499.796 595.73,489.823 			"/>
		</g>
	</g>
</g>
<g>
	<g>
		
			<line fill="none" stroke="#FFFFFF" stroke-width="2" stroke-miterlimit="10" x1="598.911" y1="314.644" x2="600.911" y2="314.644"/>
		
			<line fill="none" stroke="#FFFFFF" stroke-width="2" stroke-miterlimit="10" stroke-dasharray="3.966,1.983" x1="602.894" y1="314.644" x2="863.657" y2="314.644"/>
		
			<line fill="none" stroke="#FFFFFF" stroke-width="2" stroke-miterlimit="10" x1="864.648" y1="314.644" x2="866.648" y2="314.644"/>
		<g>
			<polygon fill="#FFFFFF" points="863.73,324.615 881,314.645 863.73,304.672 			"/>
		</g>
	</g>
</g>
<text transform="matrix(1 0 0 1 444.0723 59.335)" fill="#FFFFFF" font-family="'UniversLTStd-Bold'" font-size="48">Content Tree</text>
<g opacity="0.3">
	<g>
		<line fill="none" stroke="#FFFFFF" stroke-width="2" stroke-miterlimit="10" x1="223" y1="328.644" x2="225" y2="328.644"/>
		
			<line fill="none" stroke="#FFFFFF" stroke-width="2" stroke-miterlimit="10" stroke-dasharray="3.9915,1.9958" x1="226.996" y1="328.644" x2="860.65" y2="328.644"/>
		
			<line fill="none" stroke="#FFFFFF" stroke-width="2" stroke-miterlimit="10" x1="861.648" y1="328.644" x2="863.648" y2="328.644"/>
		<g>
			<polygon fill="#FFFFFF" points="860.73,338.615 878,328.645 860.73,318.672 			"/>
		</g>
	</g>
</g>
<g>
	<g>
		<path fill="#36A9E1" d="M370.807,250.861c1.429-0.825,3.767-0.825,5.196,0l52.74,30.449c1.429,0.825,2.598,2.85,2.598,4.5v60.899
			c0,1.65-1.169,3.675-2.598,4.5l-52.74,30.455c-1.429,0.825-3.767,0.825-5.196,0l-52.742-30.455c-1.429-0.825-2.598-2.85-2.598-4.5
			V285.81c0-1.65,1.169-3.675,2.598-4.5L370.807,250.861z"/>
	</g>
	<text transform="matrix(1 0 0 1 341.4141 299.6328)"><tspan x="0" y="0" fill="#FFFFFF" font-family="'UniversLTStd-Bold'" font-size="22.1456">NODE</tspan><tspan x="5.064" y="23.253" fill="#FFFFFF" font-family="'UniversLTStd-Light'" font-size="19.3774">name:</tspan><tspan x="0.782" y="46.506" fill="#FFFFFF" font-family="'UniversLTStd-Light'" font-size="19.3774">Aircraft</tspan></text>
</g>
<g opacity="0.3">
	<g>
		<line fill="none" stroke="#FFFFFF" stroke-width="2" stroke-miterlimit="10" x1="432" y1="299.644" x2="434" y2="299.644"/>
		
			<line fill="none" stroke="#FFFFFF" stroke-width="2" stroke-miterlimit="10" stroke-dasharray="3.9967,1.9984" x1="435.999" y1="299.644" x2="860.649" y2="299.644"/>
		
			<line fill="none" stroke="#FFFFFF" stroke-width="2" stroke-miterlimit="10" x1="861.648" y1="299.644" x2="863.648" y2="299.644"/>
		<g>
			<polygon fill="#FFFFFF" points="860.73,309.615 878,299.645 860.73,289.672 			"/>
		</g>
	</g>
</g>
<g>
	<path fill="#36A9E1" d="M586.078,252.862c1.429-0.825,3.767-0.825,5.196,0l52.74,30.449c1.429,0.825,2.598,2.85,2.598,4.5v60.899
		c0,1.65-1.169,3.675-2.598,4.5l-52.74,30.454c-1.429,0.825-3.767,0.825-5.196,0l-52.741-30.454c-1.429-0.825-2.598-2.85-2.598-4.5
		v-60.899c0-1.65,1.169-3.675,2.598-4.5L586.078,252.862z"/>
</g>
<text transform="matrix(1 0 0 1 556.6846 301.6328)"><tspan x="0" y="0" fill="#FFFFFF" font-family="'UniversLTStd-Bold'" font-size="22.1456">NODE</tspan><tspan x="5.063" y="23.253" fill="#FFFFFF" font-family="'UniversLTStd-Light'" font-size="19.3774">name:</tspan><tspan x="2.923" y="46.506" fill="#FFFFFF" font-family="'UniversLTStd-Light'" font-size="19.3774">Yachts</tspan></text>
<g opacity="0.3">
	<g>
		<line fill="none" stroke="#FFFFFF" stroke-width="2" stroke-miterlimit="10" x1="215" y1="513.977" x2="217" y2="513.977"/>
		
			<line fill="none" stroke="#FFFFFF" stroke-width="2" stroke-miterlimit="10" stroke-dasharray="4.0283,2.0142" x1="219.014" y1="513.977" x2="592.642" y2="513.977"/>
		
			<line fill="none" stroke="#FFFFFF" stroke-width="2" stroke-miterlimit="10" x1="593.648" y1="513.977" x2="595.648" y2="513.977"/>
		<g>
			<polygon fill="#FFFFFF" points="592.73,523.948 610,513.978 592.73,504.005 			"/>
		</g>
	</g>
</g>
<g>
	<g>
		<path fill="#36A9E1" d="M356.805,434.225c1.429-0.825,3.767-0.825,5.196,0l52.741,30.45c1.429,0.825,2.598,2.85,2.598,4.5v60.899
			c0,1.65-1.169,3.675-2.598,4.5l-52.741,30.452c-1.429,0.825-3.767,0.825-5.196,0l-52.741-30.452
			c-1.429-0.825-2.598-2.85-2.598-4.5v-60.899c0-1.65,1.169-3.675,2.598-4.5L356.805,434.225z"/>
	</g>
	<text transform="matrix(1 0 0 1 327.4126 482.9961)"><tspan x="0" y="0" fill="#FFFFFF" font-family="'UniversLTStd-Bold'" font-size="22.1456">NODE</tspan><tspan x="5.064" y="23.253" fill="#FFFFFF" font-family="'UniversLTStd-Light'" font-size="19.3774">name:</tspan><tspan x="-2.474" y="46.506" fill="#FFFFFF" font-family="'UniversLTStd-Light'" font-size="19.3774">Ford GT</tspan></text>
</g>
</svg>
