<?xml version="1.0" encoding="utf-8"?>
<!-- Generator: Adobe Illustrator 16.0.0, SVG Export Plug-In . SVG Version: 6.00 Build 0)  -->
<!DOCTYPE svg PUBLIC "-//W3C//DTD SVG 1.1//EN" "http://www.w3.org/Graphics/SVG/1.1/DTD/svg11.dtd">
<svg version="1.1" id="Layer_1" xmlns="http://www.w3.org/2000/svg" x="0px" y="0px"
	 width="1200px" height="630px" viewBox="0 0 1200 630" enable-background="new 0 0 1200 630" xml:space="preserve">
<rect fill="#0096DC" width="1200" height="630"/>
<text transform="matrix(1 0 0 1 1094.9619 27.6802)"><tspan x="0" y="0" fill="#FFFFFF" font-family="'UniversLTStd-Bold'" font-size="12">g</tspan><tspan x="7.104" y="0" fill="#FFFFFF" font-family="'UniversLTStd-Bold'" font-size="12">etmesh.io</tspan></text>
<g>
	<path fill="#FFFFFF" d="M1174.287,12.637c-0.08,0.023-0.2,0.065-0.27,0.1c-0.092,0.05-7.745,4.553-8.396,4.942
		c-0.165,0.1-0.415,0.377-0.523,0.581l-0.088,0.165l-0.012,5.238l-0.008,5.239l0.081,0.215c0.169,0.457,0.077,0.392,4.665,3.096
		c2.3,1.358,4.266,2.507,4.364,2.55c0.25,0.115,0.759,0.115,1.009,0c0.131-0.058,7.207-4.215,8.48-4.977
		c0.165-0.1,0.415-0.377,0.523-0.581l0.088-0.165l0.012-5.238c0.008-5.211,0.008-5.239-0.069-5.45c-0.234-0.627-0.988-1-1.635-0.812
		c-0.158,0.047-1.068,0.558-2.941,1.662c-2.978,1.75-3.023,1.781-3.188,2.223c-0.108,0.288-0.108,0.708,0,1
		c0.104,0.277,0.399,0.6,0.677,0.734c0.288,0.143,0.711,0.17,1.012,0.066c0.115-0.039,0.923-0.488,1.792-1.004
		c0.873-0.512,1.592-0.931,1.607-0.931c0.012,0,0.02,1.473,0.016,3.273l-0.012,3.273l-3.415,2.015
		c-1.877,1.108-3.431,2.016-3.45,2.016s-1.573-0.908-3.45-2.016l-3.415-2.015v-4.103v-4.104l3.415-2.015
		c1.877-1.108,3.431-2.016,3.45-2.016s0.708,0.396,1.527,0.881c0.992,0.585,1.569,0.904,1.718,0.946
		c0.623,0.181,1.305-0.135,1.604-0.742c0.077-0.154,0.093-0.242,0.093-0.566c0-0.338-0.012-0.411-0.1-0.6
		c-0.059-0.123-0.17-0.284-0.254-0.369c-0.143-0.142-3.708-2.281-4.073-2.442C1174.922,12.621,1174.499,12.583,1174.287,12.637"/>
	<path fill="#FFFFFF" d="M1174.003,22.44c-0.854,0.315-1.192,1.35-0.696,2.127c0.308,0.488,0.958,0.738,1.53,0.592
		c0.442-0.115,0.766-0.381,0.958-0.792c0.089-0.185,0.1-0.261,0.1-0.596c0-0.343-0.011-0.408-0.107-0.604
		c-0.139-0.281-0.392-0.535-0.669-0.669C1174.826,22.353,1174.307,22.325,1174.003,22.44"/>
</g>
<text transform="matrix(1 0 0 1 447.9854 122.4854)" fill="#FFFFFF" font-family="'UniversLTStd-Bold'" font-size="48">WebRoot API</text>
<rect x="27.355" y="-144.272" display="none" fill="#0096DC" width="1079.245" height="700.833"/>
<path opacity="0.6" fill="#80CBEE" d="M648.036,248.266H402.631c-1.705,0-3.085,1.692-3.085,3.779v46.463
	c0,2.087,1.38,3.778,3.085,3.778h245.405c1.703,0,3.084-1.691,3.084-3.778v-46.463C651.12,249.958,649.739,248.266,648.036,248.266"
	/>
<path opacity="0.6" fill="#80CBEE" d="M946.557,248.615H836.775c-0.843,0-1.525,1.533-1.525,3.425v47.167
	c0,1.895,0.683,3.429,1.525,3.429h109.781c0.843,0,1.525-1.534,1.525-3.429V252.04C948.082,250.148,947.399,248.615,946.557,248.615
	"/>
<text transform="matrix(1 0 0 1 266.4741 288.7983)"><tspan x="0" y="0" fill="#FFFFFF" font-family="'UniversLTStd-Light'" font-size="38.7643">/api/v2/</tspan><tspan x="122.805" y="0" fill="#FFFFFF" font-family="'UniversLTStd-Light'" font-size="38.7643" letter-spacing="-4">     </tspan><tspan x="153.429" y="0" fill="#FFFFFF" font-family="'UniversLTStd-Light'" font-size="38.7643" letter-spacing="-1">:projectName</tspan><tspan x="362.792" y="0" fill="#FFFFFF" font-family="'UniversLTStd-Light'" font-size="38.7643">   /</tspan><tspan x="405.899" y="0" fill="#FFFFFF" font-family="'UniversLTStd-Light'" font-size="38.7643">w</tspan><tspan x="437.414" y="0" fill="#FFFFFF" font-family="'UniversLTStd-Light'" font-size="38.7643">ebroot/  :path</tspan></text>
<text transform="matrix(1 0 0 1 762.9492 371.6572)"><tspan x="0" y="0" fill="#FFFFFF" font-family="'UniversLTStd-Light'" font-size="25.8338">pr</tspan><tspan x="22.966" y="0" fill="#FFFFFF" font-family="'UniversLTStd-Light'" font-size="25.8338">o</tspan><tspan x="36.812" y="0" fill="#FFFFFF" font-family="'UniversLTStd-Light'" font-size="25.8338">vided </tspan><tspan x="105.737" y="0" fill="#FFFFFF" font-family="'UniversLTStd-Light'" font-size="25.8338">b</tspan><tspan x="119.609" y="0" fill="#FFFFFF" font-family="'UniversLTStd-Light'" font-size="25.8338">y the nodes’</tspan><tspan x="12.439" y="31.001" fill="#FFFFFF" font-family="'UniversLTStd-Light'" font-size="25.8338">segmentField values</tspan></text>
<g opacity="0.5">
	
		<line fill="none" stroke="#FFFFFF" stroke-width="3" stroke-miterlimit="10" x1="893.666" y1="341.024" x2="893.666" y2="315.842"/>
</g>
<text transform="matrix(1 0 0 1 413.3101 371.6572)"><tspan x="0" y="0" fill="#FFFFFF" font-family="'UniversLTStd-Light'" font-size="25.8338">root element of </tspan><tspan x="185.201" y="0" fill="#FFFFFF" font-family="'UniversLTStd-Light'" font-size="25.8338">the</tspan><tspan x="12.323" y="31.001" fill="#FFFFFF" font-family="'UniversLTStd-Light'" font-size="25.8338">content st</tspan><tspan x="128.6" y="31.001" fill="#FFFFFF" font-family="'UniversLTStd-Light'" font-size="25.8338">r</tspan><tspan x="136.583" y="31.001" fill="#FFFFFF" font-family="'UniversLTStd-Light'" font-size="25.8338">uc</tspan><tspan x="163.863" y="31.001" fill="#FFFFFF" font-family="'UniversLTStd-Light'" font-size="25.8338">t</tspan><tspan x="171.845" y="31.001" fill="#FFFFFF" font-family="'UniversLTStd-Light'" font-size="25.8338">ure</tspan></text>
<g opacity="0.5">
	
		<line fill="none" stroke="#FFFFFF" stroke-width="3" stroke-miterlimit="10" x1="523.333" y1="341.024" x2="523.333" y2="315.842"/>
</g>
<text transform="matrix(1 0 0 1 447.1909 175.2583)" opacity="0.5" fill="#FFFFFF" font-family="'UniversLTStd-Light'" font-size="50.4488">query by path</text>
<text transform="matrix(1 0 0 1 305.9517 491.2988)" fill="#FFFFFF" font-family="'Courier'" font-size="20">Example: /api/v2/demo/webroot/automobiles/ford-gt</text>
</svg>
