<?xml version="1.0" encoding="utf-8"?>
<!-- Generator: Adobe Illustrator 16.0.0, SVG Export Plug-In . SVG Version: 6.00 Build 0)  -->
<!DOCTYPE svg PUBLIC "-//W3C//DTD SVG 1.1//EN" "http://www.w3.org/Graphics/SVG/1.1/DTD/svg11.dtd">
<svg version="1.1" id="Layer_1" xmlns="http://www.w3.org/2000/svg" xmlns:xlink="http://www.w3.org/1999/xlink" x="0px" y="0px"
	 width="1200px" height="630px" viewBox="0 0 1200 630" enable-background="new 0 0 1200 630" xml:space="preserve">
<rect fill="#0096DC" width="1200" height="630"/>
<text transform="matrix(1 0 0 1 1094.9619 27.6802)"><tspan x="0" y="0" fill="#FFFFFF" font-family="'UniversLTStd-Bold'" font-size="12">g</tspan><tspan x="7.104" y="0" fill="#FFFFFF" font-family="'UniversLTStd-Bold'" font-size="12">etmesh.io</tspan></text>
<g>
	<path fill="#FFFFFF" d="M1174.287,12.637c-0.08,0.023-0.2,0.065-0.27,0.1c-0.092,0.05-7.745,4.553-8.396,4.942
		c-0.165,0.1-0.415,0.377-0.523,0.581l-0.088,0.165l-0.012,5.238l-0.008,5.239l0.081,0.215c0.169,0.457,0.077,0.392,4.665,3.096
		c2.3,1.358,4.266,2.507,4.364,2.55c0.25,0.115,0.759,0.115,1.009,0c0.131-0.058,7.207-4.215,8.48-4.977
		c0.165-0.1,0.415-0.377,0.523-0.581l0.088-0.165l0.012-5.238c0.008-5.211,0.008-5.239-0.069-5.45c-0.234-0.627-0.988-1-1.635-0.812
		c-0.158,0.047-1.068,0.558-2.941,1.662c-2.978,1.75-3.023,1.781-3.188,2.223c-0.108,0.288-0.108,0.708,0,1
		c0.104,0.277,0.399,0.6,0.677,0.734c0.288,0.143,0.711,0.17,1.012,0.066c0.115-0.039,0.923-0.488,1.792-1.004
		c0.873-0.512,1.592-0.931,1.607-0.931c0.012,0,0.02,1.473,0.016,3.273l-0.012,3.273l-3.415,2.015
		c-1.877,1.108-3.431,2.016-3.45,2.016s-1.573-0.908-3.45-2.016l-3.415-2.015v-4.103v-4.104l3.415-2.015
		c1.877-1.108,3.431-2.016,3.45-2.016s0.708,0.396,1.527,0.881c0.992,0.585,1.569,0.904,1.718,0.946
		c0.623,0.181,1.305-0.135,1.604-0.742c0.077-0.154,0.093-0.242,0.093-0.566c0-0.338-0.012-0.411-0.1-0.6
		c-0.059-0.123-0.17-0.284-0.254-0.369c-0.143-0.142-3.708-2.281-4.073-2.442C1174.922,12.621,1174.499,12.583,1174.287,12.637"/>
	<path fill="#FFFFFF" d="M1174.003,22.44c-0.854,0.315-1.192,1.35-0.696,2.127c0.308,0.488,0.958,0.738,1.53,0.592
		c0.442-0.115,0.766-0.381,0.958-0.792c0.089-0.185,0.1-0.261,0.1-0.596c0-0.343-0.011-0.408-0.107-0.604
		c-0.139-0.281-0.392-0.535-0.669-0.669C1174.826,22.353,1174.307,22.325,1174.003,22.44"/>
</g>
<g opacity="0.6">
	<path fill="#82CCEF" d="M265.005,272.638c1.429-0.825,3.767-0.825,5.196,0l51.247,29.588c1.429,0.825,2.598,2.85,2.598,4.5v59.176
		c0,1.65-1.169,3.675-2.598,4.5l-51.247,29.588c-1.429,0.825-3.767,0.825-5.196,0l-51.246-29.588c-1.429-0.825-2.598-2.85-2.598-4.5
		v-59.176c0-1.65,1.169-3.675,2.598-4.5L265.005,272.638z"/>
</g>
<text transform="matrix(1 0 0 1 236.439 320.1133)"><tspan x="0" y="0" fill="#FFFFFF" font-family="'UniversLTStd-Bold'" font-size="21.5744">NODE</tspan><tspan x="4.934" y="22.654" fill="#FFFFFF" font-family="'UniversLTStd-Light'" font-size="18.8776">name:</tspan><tspan x="7.029" y="45.307" fill="#FFFFFF" font-family="'UniversLTStd-Light'" font-size="18.8776">demo</tspan></text>
<g opacity="0.6">
	<path fill="#82CCEF" d="M587.986,272.636c1.429-0.825,3.767-0.825,5.196,0l51.248,29.588c1.429,0.825,2.598,2.85,2.598,4.5v59.174
		c0,1.65-1.169,3.675-2.598,4.5l-51.248,29.592c-1.429,0.825-3.767,0.825-5.196,0l-51.246-29.592c-1.429-0.825-2.598-2.85-2.598-4.5
		v-59.174c0-1.65,1.169-3.675,2.598-4.5L587.986,272.636z"/>
</g>
<text transform="matrix(1 0 0 1 559.4204 320.1133)"><tspan x="0" y="0" fill="#FFFFFF" font-family="'UniversLTStd-Bold'" font-size="21.5744">NODE</tspan><tspan x="8.605" y="22.653" fill="#FFFFFF" font-family="'UniversLTStd-Light'" font-size="18.8776">slug: </tspan><tspan x="-20.239" y="45.307" fill="#FFFFFF" font-family="'UniversLTStd-Light'" font-size="18.8776">automobiles</tspan></text>
<g opacity="0.6">
	<path fill="#82CCEF" d="M919.312,272.638c1.429-0.825,3.767-0.825,5.195,0l51.248,29.588c1.429,0.825,2.598,2.85,2.598,4.5v59.174
		c0,1.65-1.169,3.675-2.598,4.5l-51.248,29.59c-1.429,0.825-3.767,0.825-5.195,0l-51.248-29.59c-1.429-0.825-2.598-2.85-2.598-4.5
		v-59.174c0-1.65,1.169-3.675,2.598-4.5L919.312,272.638z"/>
</g>
<text transform="matrix(1 0 0 1 890.7441 320.1133)"><tspan x="0" y="0" fill="#FFFFFF" font-family="'UniversLTStd-Bold'" font-size="21.5744">NODE</tspan><tspan x="11.229" y="22.653" fill="#FFFFFF" font-family="'UniversLTStd-Light'" font-size="18.8776">slug:</tspan><tspan x="3.367" y="45.307" fill="#FFFFFF" font-family="'UniversLTStd-Light'" font-size="18.8776">ford-gt</tspan></text>
<text transform="matrix(1 0 0 1 117.2139 184.1055)" fill="#FFFFFF" font-family="'UniversLTStd-Light'" font-size="48">https://yourapp.com/automobiles/ford-gt</text>
<g>
	
		<line opacity="0.7" fill="none" stroke="#FFFFFF" stroke-width="3" stroke-miterlimit="10" x1="921.909" y1="246.069" x2="921.909" y2="212"/>
	
		<line opacity="0.7" fill="none" stroke="#FFFFFF" stroke-width="3" stroke-miterlimit="10" x1="590.584" y1="246.071" x2="590.584" y2="212"/>
</g>
<g>
	<g>
		
			<line fill="none" stroke="#FFFFFF" stroke-width="3" stroke-miterlimit="10" x1="330.251" y1="336.313" x2="503.673" y2="336.313"/>
		<g>
			<polygon fill="#FFFFFF" points="497.729,345.029 530.251,336.319 497.729,327.598 			"/>
		</g>
	</g>
</g>
<g>
	<g>
		
			<line fill="none" stroke="#FFFFFF" stroke-width="3" stroke-miterlimit="10" x1="652.251" y1="336.313" x2="835.007" y2="336.313"/>
		<g>
			<polygon fill="#FFFFFF" points="829.062,345.029 861.585,336.319 829.062,327.598 			"/>
		</g>
	</g>
</g>
<text transform="matrix(1 0 0 1 440.0723 96.4854)" fill="#FFFFFF" font-family="'UniversLTStd-Bold'" font-size="48">Pretty URLs</text>
<polygon opacity="0.6" fill="#82CCEF" points="1033.5,585 1033.5,485.205 1003.582,453.172 811.5,453.172 811.5,585 "/>
<text transform="matrix(1 0 0 1 826.5 481.7324)"><tspan x="0" y="0" fill="#FFFFFF" font-family="'UniversLTStd-Bold'" font-size="21">SCHEMA</tspan><tspan x="0" y="21.6" fill="#FFFFFF" font-family="'UniversLTStd-Light'" font-size="18">vehicle</tspan><tspan x="0" y="39.6" fill="#FFFFFF" font-family="'UniversLTStd-Light'" font-size="15">{   ....</tspan><tspan x="0" y="57.6" fill="#FFFFFF" font-family="'UniversLTStd-Light'" font-size="15">    &quot;segmentField&quot; : &quot;slug&quot;,</tspan><tspan x="0" y="75.6" fill="#FFFFFF" font-family="'UniversLTStd-Light'" font-size="15">    ...</tspan><tspan x="0" y="93.6" fill="#FFFFFF" font-family="'UniversLTStd-Light'" font-size="15">}</tspan></text>
<polygon opacity="0.6" fill="#82CCEF" points="700.5,585 700.5,485.205 670.582,453.172 478.5,453.172 478.5,585 "/>
<text transform="matrix(1 0 0 1 493.5 481.7324)"><tspan x="0" y="0" fill="#FFFFFF" font-family="'UniversLTStd-Bold'" font-size="21">SCHEMA</tspan><tspan x="0" y="21.6" fill="#FFFFFF" font-family="'UniversLTStd-Light'" font-size="18">category</tspan><tspan x="0" y="39.6" fill="#FFFFFF" font-family="'UniversLTStd-Light'" font-size="15">{   ....</tspan><tspan x="0" y="57.6" fill="#FFFFFF" font-family="'UniversLTStd-Light'" font-size="15">    &quot;segmentField&quot; : &quot;slug&quot;,</tspan><tspan x="0" y="75.6" fill="#FFFFFF" font-family="'UniversLTStd-Light'" font-size="15">    ...</tspan><tspan x="0" y="93.6" fill="#FFFFFF" font-family="'UniversLTStd-Light'" font-size="15">}</tspan></text>
<g>
	<g>
		<g>
			
				<line fill="none" stroke="#FFFFFF" stroke-width="2" stroke-miterlimit="10" stroke-dasharray="4,2" x1="590.584" y1="405.489" x2="590.584" y2="432.648"/>
			<g>
				<polygon fill="#FFFFFF" points="580.613,429.73 590.583,447 600.556,429.73 				"/>
			</g>
		</g>
	</g>
	<g>
		<g>
			
				<line fill="none" stroke="#FFFFFF" stroke-width="2" stroke-miterlimit="10" stroke-dasharray="4,2" x1="922.584" y1="405.489" x2="922.584" y2="432.648"/>
			<g>
				<polygon fill="#FFFFFF" points="912.612,429.73 922.583,447 932.556,429.73 				"/>
			</g>
		</g>
	</g>
</g>
</svg>
