<?xml version="1.0" encoding="utf-8"?>
<!-- Generator: Adobe Illustrator 16.0.0, SVG Export Plug-In . SVG Version: 6.00 Build 0)  -->
<!DOCTYPE svg PUBLIC "-//W3C//DTD SVG 1.1//EN" "http://www.w3.org/Graphics/SVG/1.1/DTD/svg11.dtd">
<svg version="1.1" id="Layer_1" xmlns="http://www.w3.org/2000/svg" xmlns:xlink="http://www.w3.org/1999/xlink" x="0px" y="0px"
	 width="1200px" height="630px" viewBox="0 0 1200 630" enable-background="new 0 0 1200 630" xml:space="preserve">
<rect fill="#0096DC" width="1200" height="630"/>
<text transform="matrix(1 0 0 1 1094.9619 27.6802)"><tspan x="0" y="0" fill="#FFFFFF" font-family="'UniversLTStd-Bold'" font-size="12">g</tspan><tspan x="7.104" y="0" fill="#FFFFFF" font-family="'UniversLTStd-Bold'" font-size="12">etmesh.io</tspan></text>
<g>
	<path fill="#FFFFFF" d="M1174.287,12.637c-0.08,0.023-0.2,0.065-0.27,0.1c-0.092,0.05-7.745,4.553-8.396,4.942
		c-0.165,0.1-0.415,0.377-0.523,0.581l-0.088,0.165l-0.012,5.238l-0.008,5.239l0.081,0.215c0.169,0.457,0.077,0.392,4.665,3.096
		c2.3,1.358,4.266,2.507,4.364,2.55c0.25,0.115,0.759,0.115,1.009,0c0.131-0.058,7.207-4.215,8.48-4.977
		c0.165-0.1,0.415-0.377,0.523-0.581l0.088-0.165l0.012-5.238c0.008-5.211,0.008-5.239-0.069-5.45c-0.234-0.627-0.988-1-1.635-0.812
		c-0.158,0.047-1.068,0.558-2.941,1.662c-2.978,1.75-3.023,1.781-3.188,2.223c-0.108,0.288-0.108,0.708,0,1
		c0.104,0.277,0.399,0.6,0.677,0.734c0.288,0.143,0.711,0.17,1.012,0.066c0.115-0.039,0.923-0.488,1.792-1.004
		c0.873-0.512,1.592-0.931,1.607-0.931c0.012,0,0.02,1.473,0.016,3.273l-0.012,3.273l-3.415,2.015
		c-1.877,1.108-3.431,2.016-3.45,2.016s-1.573-0.908-3.45-2.016l-3.415-2.015v-4.103v-4.104l3.415-2.015
		c1.877-1.108,3.431-2.016,3.45-2.016s0.708,0.396,1.527,0.881c0.992,0.585,1.569,0.904,1.718,0.946
		c0.623,0.181,1.305-0.135,1.604-0.742c0.077-0.154,0.093-0.242,0.093-0.566c0-0.338-0.012-0.411-0.1-0.6
		c-0.059-0.123-0.17-0.284-0.254-0.369c-0.143-0.142-3.708-2.281-4.073-2.442C1174.922,12.621,1174.499,12.583,1174.287,12.637"/>
	<path fill="#FFFFFF" d="M1174.003,22.44c-0.854,0.315-1.192,1.35-0.696,2.127c0.308,0.488,0.958,0.738,1.53,0.592
		c0.442-0.115,0.766-0.381,0.958-0.792c0.089-0.185,0.1-0.261,0.1-0.596c0-0.343-0.011-0.408-0.107-0.604
		c-0.139-0.281-0.392-0.535-0.669-0.669C1174.826,22.353,1174.307,22.325,1174.003,22.44"/>
</g>
<g>
	<path opacity="0.5" fill="#80CBEE" d="M1132.009,75.154H692.711h-22.939H365.796V42.308c0-1.484-1.668-2.687-3.727-2.687H65.549
		c-2.06,0-3.728,1.203-3.728,2.687v33.036c0,0.475,0.186,0.915,0.485,1.301c-0.299,0.394-0.485,0.836-0.485,1.313v515.235
		c0,1.551,1.788,2.806,3.991,2.806h1066.196c2.205,0,3.991-1.255,3.991-2.806V77.959C1136,76.41,1134.214,75.154,1132.009,75.154z"
		/>
	<text transform="matrix(1 0 0 1 76.8613 63.6958)"><tspan x="0" y="0" fill="#FFFFFF" font-family="'UniversLTStd-Bold'" font-size="18">PROJECT </tspan><tspan x="86.021" y="0" fill="#FFFFFF" font-family="'UniversLTStd-Light'" font-size="18">demo</tspan></text>
</g>
<text transform="matrix(1 0 0 1 344.8735 -103.3335)"><tspan x="0" y="0" font-family="'UniversLTStd-Bold'" font-size="12">&lt;div&gt;Icons made by &lt;a href=&quot;http://www.flaticon.com/authors/dave-gandy&quot; title=&quot;Dave Gandy&quot;&gt;Dave Gandy&lt;/a&gt; from </tspan><tspan x="-276.652" y="14.4" font-family="'UniversLTStd-Bold'" font-size="12">&lt;a href=&quot;http://www.flaticon.com&quot; title=&quot;Flaticon&quot;&gt;www.flaticon.com&lt;/a&gt; is licensed by &lt;a href=&quot;http://creativecommons.org/licenses/by/3.0/&quot; title=&quot;Creative Commons BY 3.0&quot; target=&quot;_blank&quot;&gt;CC 3.0 BY&lt;/a&gt;&lt;/div&gt;</tspan></text>
<g>
	<path fill="#80CBEE" d="M183.068,442.355c1.429-0.825,3.767-0.825,5.196,0l36.663,21.166c1.429,0.825,2.598,2.85,2.598,4.5v42.335
		c0,1.65-1.169,3.675-2.598,4.5l-36.663,21.17c-1.429,0.825-3.767,0.825-5.196,0l-36.663-21.17c-1.429-0.825-2.598-2.85-2.598-4.5
		v-42.335c0-1.65,1.169-3.675,2.598-4.5L183.068,442.355z"/>
</g>
<text transform="matrix(1 0 0 1 162.5537 477.1758)"><tspan x="0" y="0" fill="#FFFFFF" font-family="'UniversLTStd-Bold'" font-size="16">NODE</tspan><tspan x="3.659" y="16.8" fill="#FFFFFF" font-family="'UniversLTStd-Light'" font-size="14">name:</tspan><tspan x="-1.787" y="33.6" fill="#FFFFFF" font-family="'UniversLTStd-Light'" font-size="14">Ford GT</tspan></text>
<g>
	<path fill="#80CBEE" d="M236.978,91.224c1.429-0.825,3.767-0.825,5.196,0l36.663,21.167c1.429,0.825,2.598,2.85,2.598,4.5v42.335
		c0,1.65-1.169,3.675-2.598,4.5l-36.663,21.169c-1.429,0.825-3.767,0.825-5.196,0l-36.663-21.169c-1.429-0.825-2.598-2.85-2.598-4.5
		v-42.335c0-1.65,1.169-3.675,2.598-4.5L236.978,91.224z"/>
</g>
<text transform="matrix(1 0 0 1 216.4639 126.0454)"><tspan x="0" y="0" fill="#FFFFFF" font-family="'UniversLTStd-Bold'" font-size="16">NODE</tspan><tspan x="3.659" y="16.8" fill="#FFFFFF" font-family="'UniversLTStd-Light'" font-size="14">name:</tspan><tspan x="5.213" y="33.6" fill="#FFFFFF" font-family="'UniversLTStd-Light'" font-size="14">demo</tspan></text>
<g>
	<g>
		<path fill="#80CBEE" d="M191.119,267.807c1.429-0.825,3.767-0.825,5.196,0l36.663,21.167c1.429,0.825,2.598,2.85,2.598,4.5v42.334
			c0,1.65-1.169,3.675-2.598,4.5l-36.663,21.171c-1.429,0.825-3.767,0.825-5.196,0l-36.663-21.171
			c-1.429-0.825-2.598-2.85-2.598-4.5v-42.334c0-1.65,1.169-3.675,2.598-4.5L191.119,267.807z"/>
	</g>
	<text transform="matrix(1 0 0 1 170.6045 302.6289)"><tspan x="0" y="0" fill="#FFFFFF" font-family="'UniversLTStd-Bold'" font-size="16">NODE</tspan><tspan x="3.659" y="16.8" fill="#FFFFFF" font-family="'UniversLTStd-Light'" font-size="14">name:</tspan><tspan x="-16.179" y="33.6" fill="#FFFFFF" font-family="'UniversLTStd-Light'" font-size="14">Automobiles</tspan></text>
</g>
<g>
	<path fill="#80CBEE" d="M372.558,268.695c1.429-0.825,3.767-0.825,5.196,0l36.662,21.167c1.429,0.825,2.598,2.85,2.598,4.5v42.334
		c0,1.65-1.169,3.675-2.598,4.5l-36.662,21.171c-1.429,0.825-3.767,0.825-5.196,0l-36.664-21.171c-1.429-0.825-2.598-2.85-2.598-4.5
		v-42.334c0-1.65,1.169-3.675,2.598-4.5L372.558,268.695z"/>
</g>
<text transform="matrix(1 0 0 1 352.0425 303.5161)"><tspan x="0" y="0" fill="#FFFFFF" font-family="'UniversLTStd-Bold'" font-size="16">NODE</tspan><tspan x="3.659" y="16.8" fill="#FFFFFF" font-family="'UniversLTStd-Light'" font-size="14">name:</tspan><tspan x="0.565" y="33.6" fill="#FFFFFF" font-family="'UniversLTStd-Light'" font-size="14">Aircraft</tspan></text>
<g>
	<path fill="#80CBEE" d="M372.557,442.355c1.429-0.825,3.767-0.825,5.196,0l36.663,21.168c1.429,0.825,2.598,2.85,2.598,4.5v42.334
		c0,1.65-1.169,3.675-2.598,4.5l-36.663,21.169c-1.429,0.825-3.767,0.825-5.196,0l-36.663-21.169c-1.429-0.825-2.598-2.85-2.598-4.5
		v-42.334c0-1.65,1.169-3.675,2.598-4.5L372.557,442.355z"/>
</g>
<text transform="matrix(1 0 0 1 352.042 477.1768)"><tspan x="0" y="0" fill="#FFFFFF" font-family="'UniversLTStd-Bold'" font-size="16">NODE</tspan><tspan x="3.659" y="16.8" fill="#FFFFFF" font-family="'UniversLTStd-Light'" font-size="14">name:</tspan><tspan x="-0.226" y="33.6" fill="#FFFFFF" font-family="'UniversLTStd-Light'" font-size="14">Trabant</tspan></text>
<g>
	<path fill="#80CBEE" d="M555.544,268.695c1.429-0.825,3.767-0.825,5.196,0l36.662,21.167c1.429,0.825,2.598,2.85,2.598,4.5v42.334
		c0,1.65-1.169,3.675-2.598,4.5l-36.662,21.17c-1.429,0.825-3.767,0.825-5.196,0l-36.663-21.17c-1.429-0.825-2.598-2.85-2.598-4.5
		v-42.334c0-1.65,1.169-3.675,2.598-4.5L555.544,268.695z"/>
</g>
<text transform="matrix(1 0 0 1 535.0283 303.5156)"><tspan x="0" y="0" fill="#FFFFFF" font-family="'UniversLTStd-Bold'" font-size="16">NODE</tspan><tspan x="3.659" y="16.8" fill="#FFFFFF" font-family="'UniversLTStd-Light'" font-size="14">name:</tspan><tspan x="2.112" y="33.6" fill="#FFFFFF" font-family="'UniversLTStd-Light'" font-size="14">Yachts</tspan></text>
<g>
	<g>
		<line fill="none" stroke="#FFFFFF" stroke-miterlimit="10" x1="239.576" y1="186.395" x2="198.127" y2="258.623"/>
		<g>
			<polygon fill="#FFFFFF" points="196.593,255.458 193.716,266.306 201.633,258.351 			"/>
		</g>
	</g>
</g>
<g>
	<g>
		<line fill="none" stroke="#FFFFFF" stroke-miterlimit="10" x1="193.717" y1="362.979" x2="186.637" y2="432.042"/>
		<g>
			<polygon fill="#FFFFFF" points="183.949,429.774 185.731,440.855 189.729,430.367 			"/>
		</g>
	</g>
</g>
<g>
	<g>
		<line fill="none" stroke="#FFFFFF" stroke-miterlimit="10" x1="193.717" y1="362.979" x2="367.014" y2="437.361"/>
		<g>
			<polygon fill="#FFFFFF" points="364.047,439.249 375.154,440.857 366.339,433.91 			"/>
		</g>
	</g>
</g>
<g>
	<g>
		<line fill="none" stroke="#FFFFFF" stroke-miterlimit="10" x1="239.576" y1="186.395" x2="367.545" y2="262.659"/>
		<g>
			<polygon fill="#FFFFFF" points="364.356,264.141 375.155,267.196 367.331,259.149 			"/>
		</g>
	</g>
</g>
<g>
	<g>
		<line fill="none" stroke="#FFFFFF" stroke-miterlimit="10" x1="239.576" y1="186.395" x2="549.555" y2="265.017"/>
		<g>
			<polygon fill="#FFFFFF" points="546.92,267.346 558.142,267.197 548.348,261.714 			"/>
		</g>
	</g>
</g>
<g>
	<polygon fill="#80CBEE" points="1073.082,219.531 881,219.531 881,411.531 1103,411.531 1103,251.564 	"/>
	<text transform="matrix(1 0 0 1 896 248.0913)"><tspan x="0" y="0" fill="#FFFFFF" font-family="'UniversLTStd-Bold'" font-size="16">SCHEMA</tspan><tspan x="0" y="19.2" fill="#FFFFFF" font-family="'UniversLTStd-Light'" font-size="16">category</tspan><tspan x="0" y="36" fill="#FFFFFF" font-family="'UniversLTStd-Light'" font-size="14">{   ....</tspan><tspan x="0" y="52.8" fill="#FFFFFF" font-family="'UniversLTStd-Light'" font-size="14">    &quot;name&quot; : &quot;category&quot;,</tspan><tspan x="0" y="69.6" fill="#FFFFFF" font-family="'UniversLTStd-Light'" font-size="14">    &quot;displayField&quot; : &quot;name&quot;,</tspan><tspan x="0" y="86.4" fill="#FFFFFF" font-family="'UniversLTStd-Light'" font-size="14">    &quot;segmentField&quot; : &quot;name&quot;,</tspan><tspan x="0" y="103.2" fill="#FFFFFF" font-family="'UniversLTStd-Light'" font-size="14">    &quot;container&quot; : true,</tspan><tspan x="0" y="120" fill="#FFFFFF" font-family="'UniversLTStd-Light'" font-size="14">    ...</tspan><tspan x="0" y="136.799" fill="#FFFFFF" font-family="'UniversLTStd-Light'" font-size="14">}</tspan></text>
</g>
<g>
	<polygon fill="#80CBEE" points="805.082,393.191 613,393.191 613,585.191 835,585.191 835,425.225 	"/>
	<text transform="matrix(1 0 0 1 628 421.752)"><tspan x="0" y="0" fill="#FFFFFF" font-family="'UniversLTStd-Bold'" font-size="16">SCHEMA</tspan><tspan x="0" y="19.2" fill="#FFFFFF" font-family="'UniversLTStd-Light'" font-size="16">vehicle</tspan><tspan x="0" y="36" fill="#FFFFFF" font-family="'UniversLTStd-Light'" font-size="14">{   ....</tspan><tspan x="0" y="52.8" fill="#FFFFFF" font-family="'UniversLTStd-Light'" font-size="14">    &quot;name&quot; : vehicle,</tspan><tspan x="0" y="69.6" fill="#FFFFFF" font-family="'UniversLTStd-Light'" font-size="14">    &quot;displayField&quot; : &quot;name&quot;,</tspan><tspan x="0" y="86.4" fill="#FFFFFF" font-family="'UniversLTStd-Light'" font-size="14">    &quot;segmentField&quot; : &quot;name&quot;,</tspan><tspan x="0" y="103.2" fill="#FFFFFF" font-family="'UniversLTStd-Light'" font-size="14">    &quot;container&quot; : true,</tspan><tspan x="0" y="120" fill="#FFFFFF" font-family="'UniversLTStd-Light'" font-size="14">    ...</tspan><tspan x="0" y="136.8" fill="#FFFFFF" font-family="'UniversLTStd-Light'" font-size="14">}</tspan></text>
</g>
<g>
	<g>
		
			<line fill="none" stroke="#FFFFFF" stroke-width="2" stroke-miterlimit="10" x1="417.014" y1="491.795" x2="419.014" y2="491.795"/>
		
			<line fill="none" stroke="#FFFFFF" stroke-width="2" stroke-miterlimit="10" stroke-dasharray="4.0371,2.0186" x1="421.033" y1="491.795" x2="595.639" y2="491.795"/>
		
			<line fill="none" stroke="#FFFFFF" stroke-width="2" stroke-miterlimit="10" x1="596.648" y1="491.795" x2="598.648" y2="491.795"/>
		<g>
			<polygon fill="#FFFFFF" points="595.73,501.767 613,491.796 595.73,481.823 			"/>
		</g>
	</g>
</g>
<g>
	<g>
		
			<line fill="none" stroke="#FFFFFF" stroke-width="2" stroke-miterlimit="10" x1="598.911" y1="314.644" x2="600.911" y2="314.644"/>
		
			<line fill="none" stroke="#FFFFFF" stroke-width="2" stroke-miterlimit="10" stroke-dasharray="3.966,1.983" x1="602.894" y1="314.644" x2="863.657" y2="314.644"/>
		
			<line fill="none" stroke="#FFFFFF" stroke-width="2" stroke-miterlimit="10" x1="864.648" y1="314.644" x2="866.648" y2="314.644"/>
		<g>
			<polygon fill="#FFFFFF" points="863.73,324.615 881,314.645 863.73,304.672 			"/>
		</g>
	</g>
</g>
<text transform="matrix(1 0 0 1 444.0723 59.335)" fill="#FFFFFF" font-family="'UniversLTStd-Bold'" font-size="48">Content Tree</text>
</svg>
