<?xml version="1.0" encoding="utf-8"?>
<!-- Generator: Adobe Illustrator 16.0.0, SVG Export Plug-In . SVG Version: 6.00 Build 0)  -->
<!DOCTYPE svg PUBLIC "-//W3C//DTD SVG 1.1//EN" "http://www.w3.org/Graphics/SVG/1.1/DTD/svg11.dtd">
<svg version="1.1" id="Layer_1" xmlns="http://www.w3.org/2000/svg" xmlns:xlink="http://www.w3.org/1999/xlink" x="0px" y="0px"
	 width="1200px" height="630px" viewBox="0 0 1200 630" enable-background="new 0 0 1200 630" xml:space="preserve">
<text transform="matrix(1 0 0 1 1094.9619 27.6797)" fill="#0096DC" font-family="'UniversLTStd-Bold'" font-size="12">g</text>
<text transform="matrix(1 0 0 1 1102.0664 27.6797)" fill="#0096DC" font-family="'UniversLTStd-Bold'" font-size="12">etmesh.io</text>
<polygon fill="#0096DC" points="878.822,0 0,0 0,630 572.694,630 "/>
<g>
	<path fill="#0096DC" d="M1174.287,12.637c-0.08,0.023-0.2,0.065-0.271,0.1c-0.092,0.05-7.745,4.553-8.396,4.942
		c-0.165,0.1-0.415,0.377-0.523,0.581l-0.088,0.165l-0.012,5.238l-0.008,5.239l0.081,0.215c0.169,0.457,0.077,0.392,4.665,3.096
		c2.3,1.358,4.266,2.507,4.363,2.55c0.25,0.115,0.76,0.115,1.01,0c0.131-0.058,7.207-4.215,8.479-4.977
		c0.165-0.1,0.415-0.377,0.523-0.581l0.088-0.165l0.012-5.238c0.008-5.211,0.008-5.239-0.069-5.45c-0.233-0.627-0.987-1-1.635-0.812
		c-0.158,0.047-1.067,0.558-2.94,1.662c-2.979,1.75-3.023,1.781-3.188,2.223c-0.107,0.288-0.107,0.708,0,1
		c0.104,0.277,0.399,0.6,0.677,0.734c0.288,0.143,0.712,0.17,1.013,0.066c0.114-0.039,0.923-0.488,1.792-1.004
		c0.873-0.512,1.592-0.931,1.606-0.931c0.012,0,0.021,1.473,0.017,3.273l-0.013,3.273l-3.415,2.015
		c-1.877,1.108-3.431,2.016-3.449,2.016c-0.02,0-1.573-0.908-3.45-2.016l-3.415-2.015v-4.103v-4.104l3.415-2.015
		c1.877-1.108,3.431-2.016,3.45-2.016c0.019,0,0.708,0.396,1.526,0.881c0.992,0.585,1.569,0.904,1.719,0.946
		c0.623,0.181,1.305-0.135,1.604-0.742c0.077-0.154,0.093-0.242,0.093-0.566c0-0.338-0.012-0.411-0.1-0.6
		c-0.06-0.123-0.17-0.284-0.254-0.369c-0.144-0.142-3.708-2.281-4.073-2.442C1174.922,12.621,1174.499,12.583,1174.287,12.637"/>
	<path fill="#0096DC" d="M1174.003,22.44c-0.854,0.315-1.192,1.35-0.696,2.127c0.309,0.488,0.958,0.738,1.53,0.592
		c0.442-0.115,0.767-0.381,0.958-0.792c0.089-0.185,0.1-0.261,0.1-0.596c0-0.343-0.011-0.408-0.106-0.604
		c-0.14-0.281-0.392-0.535-0.669-0.669C1174.826,22.353,1174.307,22.325,1174.003,22.44"/>
</g>
<text transform="matrix(1 0 0 1 329.584 121.4854)" fill="#FFFFFF" font-family="'UniversLTStd-Bold'" font-size="48">Navigation Menu</text>
<g>
	<g>
		<path fill="#36A9E1" d="M162.151,239.224c1.429-0.825,3.767-0.825,5.196,0l52.741,30.45c1.429,0.825,2.598,2.85,2.598,4.5v60.9
			c0,1.649-1.169,3.674-2.598,4.5l-52.741,30.452c-1.429,0.825-3.767,0.825-5.196,0l-52.741-30.452
			c-1.429-0.825-2.598-2.851-2.598-4.5v-60.9c0-1.65,1.169-3.675,2.598-4.5L162.151,239.224z"/>
	</g>
	<text transform="matrix(1 0 0 1 132.7598 287.9961)"><tspan x="0" y="0" fill="#FFFFFF" font-family="'UniversLTStd-Bold'" font-size="22.1456">NODE</tspan><tspan x="7.215" y="23.253" fill="#FFFFFF" font-family="'UniversLTStd-Light'" font-size="19.3774">demo</tspan><tspan x="5.064" y="46.506" fill="#FFFFFF" font-family="'UniversLTStd-Light'" font-size="19.3774">path: /</tspan></text>
	<g>
		<g>
			<g>
				<path fill="#36A9E1" d="M87.678,428.633c1.429-0.826,3.767-0.826,5.196,0l52.74,30.449c1.429,0.825,2.598,2.85,2.598,4.5v60.899
					c0,1.65-1.169,3.675-2.598,4.5l-52.74,30.455c-1.429,0.825-3.767,0.825-5.196,0l-52.741-30.455
					c-1.429-0.825-2.598-2.85-2.598-4.5v-60.899c0-1.65,1.169-3.675,2.598-4.5L87.678,428.633z"/>
			</g>
		</g>
		<text transform="matrix(1 0 0 1 58.2861 477.4053)"><tspan x="0" y="0" fill="#FFFFFF" font-family="'UniversLTStd-Bold'" font-size="22.1456">NODE</tspan><tspan x="5.063" y="23.253" fill="#FFFFFF" font-family="'UniversLTStd-Light'" font-size="19.3774">name:</tspan><tspan x="-22.394" y="46.506" fill="#FFFFFF" font-family="'UniversLTStd-Light'" font-size="19.3774">Automobiles</tspan></text>
	</g>
	<g>
		<g>
			<line fill="none" stroke="#FFFFFF" stroke-miterlimit="10" x1="164.576" y1="371.395" x2="97.363" y2="421.816"/>
			<g>
				<polygon fill="#FFFFFF" points="97.205,418.303 90.275,427.131 100.692,422.951 				"/>
			</g>
		</g>
	</g>
	<g>
		<g>
			<line fill="none" stroke="#FFFFFF" stroke-miterlimit="10" x1="164.576" y1="371.395" x2="290.231" y2="423.943"/>
			<g>
				<polygon fill="#FFFFFF" points="287.282,425.859 298.404,427.363 289.524,420.498 				"/>
			</g>
		</g>
	</g>
	<g>
		<g>
			<line fill="none" stroke="#FFFFFF" stroke-miterlimit="10" x1="164.576" y1="371.395" x2="504.936" y2="427.91"/>
			<g>
				<polygon fill="#FFFFFF" points="502.506,430.452 513.676,429.363 503.457,424.721 				"/>
			</g>
		</g>
	</g>
	<g>
		<g>
			<path fill="#36A9E1" d="M295.807,428.861c1.429-0.826,3.767-0.826,5.196,0l52.739,30.448c1.43,0.825,2.599,2.851,2.599,4.5
				v60.899c0,1.65-1.169,3.675-2.599,4.5l-52.739,30.455c-1.429,0.825-3.767,0.825-5.196,0l-52.742-30.455
				c-1.429-0.825-2.598-2.85-2.598-4.5V463.81c0-1.649,1.169-3.675,2.598-4.5L295.807,428.861z"/>
		</g>
		<text transform="matrix(1 0 0 1 266.4141 477.6328)"><tspan x="0" y="0" fill="#FFFFFF" font-family="'UniversLTStd-Bold'" font-size="22.1456">NODE</tspan><tspan x="5.064" y="23.253" fill="#FFFFFF" font-family="'UniversLTStd-Light'" font-size="19.3774">name:</tspan><tspan x="0.782" y="46.506" fill="#FFFFFF" font-family="'UniversLTStd-Light'" font-size="19.3774">Aircraft</tspan></text>
	</g>
	<g>
		<path fill="#36A9E1" d="M511.078,430.861c1.429-0.824,3.767-0.824,5.195,0l52.74,30.449c1.429,0.825,2.598,2.85,2.598,4.5v60.899
			c0,1.65-1.169,3.675-2.598,4.5l-52.74,30.454c-1.429,0.825-3.767,0.825-5.195,0l-52.742-30.454c-1.429-0.825-2.598-2.85-2.598-4.5
			v-60.899c0-1.65,1.169-3.675,2.598-4.5L511.078,430.861z"/>
	</g>
	<text transform="matrix(1 0 0 1 481.6846 479.6328)"><tspan x="0" y="0" fill="#FFFFFF" font-family="'UniversLTStd-Bold'" font-size="22.1456">NODE</tspan><tspan x="5.063" y="23.253" fill="#FFFFFF" font-family="'UniversLTStd-Light'" font-size="19.3774">name:</tspan><tspan x="2.923" y="46.506" fill="#FFFFFF" font-family="'UniversLTStd-Light'" font-size="19.3774">Yachts</tspan></text>
</g>
<image overflow="visible" width="1200" height="1004" xlink:href="../../../../../Users/Juergen/Downloads/screenshot-localhost-8080 2017-05-30 22-29-26.png"  transform="matrix(0.3487 0 0 0.3503 760.7012 244.5)">
</image>
<text transform="matrix(1 0 0 1 38.5361 182.5874)" fill="#FFFFFF" font-family="'UniversLTStd-Bold'" font-size="23.3359">API end point</text>
<text transform="matrix(1 0 0 1 38.5361 210.5903)" fill="#FFFFFF" font-family="'UniversLTStd-Light'" font-size="19">/api/v2/:projectName/navroot/:path</text>
<g>
	<path opacity="0.6" fill="#80CBEE" d="M537.808,273.5h-27.094c-0.208,0-0.376,0.896-0.376,2.004v27.594
		c0,1.108,0.168,2.006,0.376,2.006h27.094c0.208,0,0.376-0.897,0.376-2.006v-27.594C538.185,274.396,538.016,273.5,537.808,273.5"/>
	<text transform="matrix(1 0 0 1 265.6655 296.1758)" fill="#FFFFFF" font-family="'Courier'" font-size="20">/api/v2/demo/navroot / ?maxDepth=1</text>
</g>
</svg>
