<?xml version="1.0" encoding="utf-8"?>
<!-- Generator: Adobe Illustrator 16.0.0, SVG Export Plug-In . SVG Version: 6.00 Build 0)  -->
<!DOCTYPE svg PUBLIC "-//W3C//DTD SVG 1.1//EN" "http://www.w3.org/Graphics/SVG/1.1/DTD/svg11.dtd">
<svg version="1.1" id="Layer_1" xmlns="http://www.w3.org/2000/svg" xmlns:xlink="http://www.w3.org/1999/xlink" x="0px" y="0px"
	 width="800px" height="519.5px" viewBox="0 0 800 519.5" enable-background="new 0 0 800 519.5" xml:space="preserve">
<g>
	<defs>
		<rect id="SVGID_1_" width="800" height="519.5"/>
	</defs>
	<clipPath id="SVGID_2_">
		<use xlink:href="#SVGID_1_"  overflow="visible"/>
	</clipPath>
	<rect clip-path="url(#SVGID_2_)" fill="#0096DC" width="800" height="519.5"/>
	<g clip-path="url(#SVGID_2_)">
		<text transform="matrix(1 0 0 1 267.9521 124.3818)"><tspan x="0" y="0" fill="#FFFFFF" font-family="'UniversLTStd-Light'" font-size="46.6911" letter-spacing="-1">W</tspan><tspan x="44.823" y="0" fill="#FFFFFF" font-family="'UniversLTStd-Light'" font-size="46.6911">ebroot</tspan><tspan x="179.76" y="0" fill="#FFFFFF" font-family="'UniversLTStd-Light'" font-size="46.6911" letter-spacing="-1"> </tspan><tspan x="191.619" y="0" fill="#FFFFFF" font-family="'UniversLTStd-Light'" font-size="46.6911">API</tspan></text>
		
			<text transform="matrix(1 0 0 1 265.1504 180.4111)" opacity="0.5" fill="#FFFFFF" font-family="'UniversLTStd-Light'" font-size="46.6911">link resolving</text>
	</g>
	<g clip-path="url(#SVGID_2_)">
		<defs>
			<rect id="SVGID_3_" width="800" height="519.5"/>
		</defs>
		<clipPath id="SVGID_4_">
			<use xlink:href="#SVGID_3_"  overflow="visible"/>
		</clipPath>
		<path clip-path="url(#SVGID_4_)" fill="#FFFFFF" d="M774.287,12.637c-0.08,0.023-0.2,0.065-0.27,0.1
			c-0.092,0.05-7.745,4.553-8.396,4.942c-0.165,0.1-0.415,0.377-0.523,0.581l-0.088,0.165l-0.012,5.238l-0.008,5.239l0.081,0.215
			c0.169,0.457,0.077,0.392,4.665,3.096c2.3,1.358,4.266,2.507,4.364,2.55c0.25,0.115,0.759,0.115,1.009,0
			c0.131-0.058,7.207-4.215,8.48-4.977c0.165-0.1,0.415-0.377,0.523-0.581l0.088-0.165l0.012-5.238
			c0.008-5.211,0.008-5.239-0.069-5.45c-0.234-0.627-0.988-1-1.635-0.812c-0.158,0.047-1.068,0.558-2.941,1.662
			c-2.978,1.75-3.023,1.781-3.188,2.223c-0.108,0.288-0.108,0.708,0,1c0.104,0.277,0.399,0.6,0.677,0.734
			c0.288,0.143,0.711,0.17,1.012,0.066c0.115-0.039,0.923-0.488,1.792-1.004c0.873-0.512,1.592-0.931,1.607-0.931
			c0.012,0,0.02,1.473,0.016,3.273l-0.012,3.273l-3.415,2.015c-1.877,1.108-3.431,2.016-3.45,2.016s-1.573-0.908-3.45-2.016
			l-3.415-2.015v-4.103v-4.104l3.415-2.015c1.877-1.108,3.431-2.016,3.45-2.016s0.708,0.396,1.527,0.881
			c0.992,0.585,1.569,0.904,1.718,0.946c0.623,0.181,1.305-0.135,1.604-0.742c0.077-0.154,0.093-0.242,0.093-0.566
			c0-0.338-0.012-0.411-0.1-0.6c-0.059-0.123-0.17-0.284-0.254-0.369c-0.143-0.142-3.708-2.281-4.073-2.442
			C774.922,12.621,774.499,12.583,774.287,12.637"/>
		<path clip-path="url(#SVGID_4_)" fill="#FFFFFF" d="M774.003,22.44c-0.854,0.315-1.192,1.35-0.696,2.127
			c0.308,0.488,0.958,0.738,1.53,0.592c0.442-0.115,0.766-0.381,0.958-0.792c0.089-0.185,0.1-0.261,0.1-0.596
			c0-0.343-0.011-0.408-0.107-0.604c-0.139-0.281-0.392-0.535-0.669-0.669C774.826,22.353,774.307,22.325,774.003,22.44"/>
	</g>
	<g clip-path="url(#SVGID_2_)">
		<text transform="matrix(1 0 0 1 698.9619 27.6802)"><tspan x="0" y="0" fill="#FFFFFF" font-family="'UniversLTStd-Bold'" font-size="11.1842">g</tspan><tspan x="6.621" y="0" fill="#FFFFFF" font-family="'UniversLTStd-Bold'" font-size="11.1842">etmesh.io</tspan></text>
	</g>
	<g clip-path="url(#SVGID_2_)">
		<defs>
			<rect id="SVGID_5_" width="800" height="519.5"/>
		</defs>
		<clipPath id="SVGID_6_">
			<use xlink:href="#SVGID_5_"  overflow="visible"/>
		</clipPath>
		<path clip-path="url(#SVGID_6_)" fill="#80CBEE" d="M387.213,290.972H164.33c-1.548,0-2.802,1.254-2.802,2.801v34.441
			c0,1.547,1.254,2.802,2.802,2.802h222.883c1.547,0,2.801-1.255,2.801-2.802v-34.441
			C390.014,292.226,388.76,290.972,387.213,290.972"/>
		<path clip-path="url(#SVGID_6_)" fill="#80CBEE" d="M705.503,291.972H522.674c-1.402,0-2.54,1.137-2.54,2.54v34.963
			c0,1.403,1.138,2.541,2.54,2.541h182.829c1.403,0,2.541-1.138,2.541-2.541v-34.963
			C708.044,293.108,706.906,291.972,705.503,291.972"/>
	</g>
	<g clip-path="url(#SVGID_2_)">
		<text transform="matrix(1 0 0 1 65.8706 320.2754)"><tspan x="0" y="0" fill="#FFFFFF" font-family="'UniversLTStd-Light'" font-size="28.7344">/api/v1/ </tspan><tspan x="99.018" y="0" fill="#FFFFFF" font-family="'UniversLTStd-Light'" font-size="28.7344" letter-spacing="-3"> </tspan><tspan x="103.558" y="0" fill="#FFFFFF" font-family="'UniversLTStd-Light'" font-size="28.7344" letter-spacing="-2">Y</tspan><tspan x="118.96" y="0" fill="#FFFFFF" font-family="'UniversLTStd-Light'" font-size="28.7344">O</tspan><tspan x="140.74" y="0" fill="#FFFFFF" font-family="'UniversLTStd-Light'" font-size="28.7344">UR_P</tspan><tspan x="212.576" y="0" fill="#FFFFFF" font-family="'UniversLTStd-Light'" font-size="28.7344">R</tspan><tspan x="231.195" y="0" fill="#FFFFFF" font-family="'UniversLTStd-Light'" font-size="28.7344">OJECT /</tspan><tspan x="336.592" y="0" fill="#FFFFFF" font-family="'UniversLTStd-Light'" font-size="28.7344">w</tspan><tspan x="359.954" y="0" fill="#FFFFFF" font-family="'UniversLTStd-Light'" font-size="28.7344">ebroot/ segmentField</tspan></text>
	</g>
	<g clip-path="url(#SVGID_2_)">
		<text transform="matrix(1 0 0 1 524.582 381.0391)"><tspan x="0" y="0" fill="#FFFFFF" font-family="'UniversLTStd-Light'" font-size="19.1495">pr</tspan><tspan x="17.023" y="0" fill="#FFFFFF" font-family="'UniversLTStd-Light'" font-size="19.1495">o</tspan><tspan x="27.288" y="0" fill="#FFFFFF" font-family="'UniversLTStd-Light'" font-size="19.1495">vided </tspan><tspan x="78.378" y="0" fill="#FFFFFF" font-family="'UniversLTStd-Light'" font-size="19.1495">b</tspan><tspan x="88.662" y="0" fill="#FFFFFF" font-family="'UniversLTStd-Light'" font-size="19.1495">y the node</tspan></text>
	</g>
	<g clip-path="url(#SVGID_2_)">
		<text transform="matrix(1 0 0 1 525.0605 404.0186)"><tspan x="0" y="0" fill="#FFFFFF" font-family="'UniversLTStd-Light'" font-size="19.1495">based on it</tspan><tspan x="93.66" y="0" fill="#FFFFFF" font-family="'UniversLTStd-Light'" font-size="19.1495" letter-spacing="-1">’</tspan><tspan x="97.164" y="0" fill="#FFFFFF" font-family="'UniversLTStd-Light'" font-size="19.1495">s s</tspan><tspan x="121.637" y="0" fill="#FFFFFF" font-family="'UniversLTStd-Light'" font-size="19.1495">c</tspan><tspan x="130.273" y="0" fill="#FFFFFF" font-family="'UniversLTStd-Light'" font-size="19.1495">hema</tspan></text>
	</g>
	<g clip-path="url(#SVGID_2_)">
		<defs>
			<rect id="SVGID_7_" width="800" height="519.5"/>
		</defs>
		<clipPath id="SVGID_8_">
			<use xlink:href="#SVGID_7_"  overflow="visible"/>
		</clipPath>
		<g opacity="0.5" clip-path="url(#SVGID_8_)">
			<g>
				<defs>
					<rect id="SVGID_9_" x="607.265" y="340.322" width="3" height="18.667"/>
				</defs>
				<clipPath id="SVGID_10_">
					<use xlink:href="#SVGID_9_"  overflow="visible"/>
				</clipPath>
				
					<line clip-path="url(#SVGID_10_)" fill="none" stroke="#FFFFFF" stroke-width="3" stroke-miterlimit="10" x1="608.765" y1="358.988" x2="608.765" y2="340.322"/>
			</g>
		</g>
	</g>
	<g clip-path="url(#SVGID_2_)">
		<text transform="matrix(1 0 0 1 188.2163 381.0391)"><tspan x="0" y="0" fill="#FFFFFF" font-family="'UniversLTStd-Light'" font-size="19.1495">base element of </tspan><tspan x="143.678" y="0" fill="#FFFFFF" font-family="'UniversLTStd-Light'" font-size="19.1495">y</tspan><tspan x="152.87" y="0" fill="#FFFFFF" font-family="'UniversLTStd-Light'" font-size="19.1495">our</tspan></text>
	</g>
	<g clip-path="url(#SVGID_2_)">
		<text transform="matrix(1 0 0 1 205.5464 404.0186)"><tspan x="0" y="0" fill="#FFFFFF" font-family="'UniversLTStd-Light'" font-size="19.1495">content st</tspan><tspan x="86.191" y="0" fill="#FFFFFF" font-family="'UniversLTStd-Light'" font-size="19.1495">r</tspan><tspan x="92.108" y="0" fill="#FFFFFF" font-family="'UniversLTStd-Light'" font-size="19.1495">uc</tspan><tspan x="112.33" y="0" fill="#FFFFFF" font-family="'UniversLTStd-Light'" font-size="19.1495">t</tspan><tspan x="118.248" y="0" fill="#FFFFFF" font-family="'UniversLTStd-Light'" font-size="19.1495">ure</tspan></text>
	</g>
	<g clip-path="url(#SVGID_2_)">
		<defs>
			<rect id="SVGID_11_" width="800" height="519.5"/>
		</defs>
		<clipPath id="SVGID_12_">
			<use xlink:href="#SVGID_11_"  overflow="visible"/>
		</clipPath>
		<g opacity="0.5" clip-path="url(#SVGID_12_)">
			<g>
				<defs>
					<rect id="SVGID_13_" x="271.609" y="340.322" width="3" height="18.667"/>
				</defs>
				<clipPath id="SVGID_14_">
					<use xlink:href="#SVGID_13_"  overflow="visible"/>
				</clipPath>
				
					<line clip-path="url(#SVGID_14_)" fill="none" stroke="#FFFFFF" stroke-width="3" stroke-miterlimit="10" x1="273.109" y1="358.988" x2="273.109" y2="340.322"/>
			</g>
		</g>
	</g>
</g>
</svg>
