<svg height='100px' width='100px'  fill="#000000" xmlns="http://www.w3.org/2000/svg" xmlns:xlink="http://www.w3.org/1999/xlink" version="1.1" x="0px" y="0px" viewBox="0 0 64 64" enable-background="new 0 0 64 64" xml:space="preserve"><g><g><path d="M30.705,7.823c-0.133-0.004-0.267-0.004-0.404,0.003C30.467,7.905,30.602,7.886,30.705,7.823z"></path><path d="M39.182,29.426c2.884-1.575,4.142-5.584,4.8-8.64c0-0.24,0-0.48,0-0.72c-0.819-4.864-1.807-9.719-2.16-14.4    c-0.48-0.559-0.718-1.362-1.92-1.2c0-0.08,0-0.16,0-0.24c-5.04,0-10.08,0-15.12,0c-0.329,0.471-1.47,0.129-1.92,0.48    c-1.448,3.992-1.251,9.629-2.4,13.92c0,1.04,0,2.08,0,3.12c1.671,4.889,4.673,8.447,10.32,9.36c0.109,4.013,0.24,10.086,0.24,15.6    c0,2.053,0.22,4.826-0.24,6.48c-0.867,3.116-4.695,3.244-7.68,4.319c0,0.24,0,0.48,0,0.721c0.671,1.28,2.758,0.72,4.32,0.72    c3.06,0,6.557,0.034,9.84,0c1.438-0.016,3.431,0.534,3.84-0.96c0.002-1.362-1.968-0.753-2.88-1.2    c-0.938-0.343-1.6-0.961-2.88-0.96c-0.557-0.644-0.788-1.612-1.681-1.92c-0.641-3.469,0.495-6.501-0.479-9.84    c0.143-0.897,0.839-1.241,1.2-1.92c-0.317-0.907-0.989-2.704-0.721-2.16c0.007,0.233,0.294,0.186,0.48,0.24    c-0.859-3.318,0.132-4.219,0-8.641c2.663-0.117,3.853-1.203,4.8-2.88C39.791,28.733,38.432,29.5,39.182,29.426z M24.781,7.106    c3.313-0.023,3.409,0.613,6,0.48c0.258-0.531,0.232,0.048-0.076,0.237c1.612,0.045,2.992,0.818,5.116-0.477    c0.312,1.11,1.267,0.548,2.64,0.48c0.228,2.722,0.938,3.613,0.961,6.48c-5.237,0.39-9.385,0.555-15.601,0.72    C23.95,12.194,24.685,9.969,24.781,7.106z M30.542,57.026c0.227-0.733,1.168-0.753,1.2-1.681c0.638,0.083,0.81,0.63,0.96,1.2    C32.314,57.039,31.498,57.103,30.542,57.026z M36.302,27.986c-7.259,3.003-15.464-2.691-12.48-10.56    c0.864,0.529,0.927,0.051,2.16,0c-0.106,0.213-0.211,0.429-0.48,0.48c1.247-0.273,4.188,0.845,6.24-0.48    c1.313,1.092,6.087,0.137,8.4,0.24c-0.106,0.404-0.193,2.494,0.479,2.88C39.999,23.064,38.224,26.019,36.302,27.986z"></path></g></g></svg>