<svg height='100px' width='100px'  fill="#000000" xmlns="http://www.w3.org/2000/svg" xmlns:xlink="http://www.w3.org/1999/xlink" version="1.1" x="0px" y="0px" viewBox="0 0 64 64" enable-background="new 0 0 64 64" xml:space="preserve"><g><g><path fill-rule="evenodd" clip-rule="evenodd" d="M39.574,18.194c5.055-1.127-0.558-6.277-2.64-2.4    C37.111,17.297,38.769,17.32,39.574,18.194z"></path><path fill-rule="evenodd" clip-rule="evenodd" d="M47.734,18.194c1.399-0.251,2.495-1.643,1.68-3.36    c-1.353-0.998-3.855-0.159-4.56,0.96C45.385,17.024,46.496,17.672,47.734,18.194z"></path><path fill-rule="evenodd" clip-rule="evenodd" d="M56.854,7.154c-3.236-0.758-7.021-0.235-8.88-0.96    c-0.141,0.178-3.515,0.946-3.36-0.48c-0.56,0-1.12,0-1.68,0c-0.203,0.817-1.237-0.152-1.44,0.96    c-0.018-1.345-1.658,0.023-1.68-0.96c-0.32,0-0.64,0-0.96,0c-1.701,0.749-3.339-0.174-5.04,0.96c0.244-1.451-3.927-0.457-5.28,0    c-0.595,5.214-0.375,12.638,0.24,18.72c1.753,0.388,3.424-0.161,5.52,0.48c0.2,1.28-0.337,4.407,0.721,5.52    c4.297-0.123,5.869-5.219,9.6-6.24c3.7-1.013,7.862,0.682,12,0C57.549,20.156,57.108,12.547,56.854,7.154z M54.935,22.994    c-4.136,0.191-7.272-1.225-9.601-0.24c-0.237-0.824-0.299-0.7-1.68-0.96c-0.057,0.072-0.583,1.521-0.96,0.48    c-1.27,2.25-3.081,1.267-4.32,3.84c-1.235-0.56,0.084-2.429-0.96-3.36c-2.155-1.087-2.674-0.293-5.52-0.48    c-0.694-4.222-0.101-8.454-0.24-12.72c7.543-0.545,15.329-0.426,23.28-0.48C54.935,13.714,54.935,18.354,54.935,22.994z"></path><path fill-rule="evenodd" clip-rule="evenodd" d="M25.415,41.234c-0.994-0.736-2.761,1.656-3.12,0.72    c0.193-0.127,0.39-0.25,0.72-0.239c-2.013-0.099-3.671,0.696-5.28,0c-1.627-0.705-3.382-1.521-5.04-2.16    c0.562-0.717-1.864-3.537-3.36-3.36c-1.879,0.222-2.481,3.883-3.12,6c0,4.64,0,9.28,0,13.92c0.468,0.652,0.818,1.422,1.68,1.68    c1.2,0,2.4,0,3.6,0c7.587-0.933,12.684-0.393,21.36-0.96c0.262-5.861,1.373-16.298-2.16-19.92    C28.436,37.855,27.32,39.939,25.415,41.234z M30.935,54.914c-3.133,0.151-4.58-0.69-6.96-0.239c0-0.24,0-0.48,0-0.721    c-0.532,1.346-1.702-0.628-2.4,0.24c0.058,0.619,0.413-0.329,0.96,0c-0.054,0.346-0.716,0.084-0.72,0.48    c-0.663,0.103-0.225-0.896-0.72-0.96c-0.82-0.181-0.305,0.975-1.2,0.72c0.127-0.193,0.25-0.39,0.24-0.72    c-0.3,0.916-1.21-0.267-1.2,0.96c-1.176-1.329-3.769-0.948-5.52,0c0.082-1.042-2.024-0.685-3.6-0.48    c-0.131-6.498-0.085-7.223-0.24-12.24c1.734-0.545,2.866,1.73,4.56,2.4c5.419,2.144,12.597,0.149,15.84-3.84    C31.902,43.706,30.511,50.218,30.935,54.914z"></path><path fill-rule="evenodd" clip-rule="evenodd" d="M23.494,38.595c0.058,0.261,0.396,0.576,0.48,0.239    c-0.802-0.439,0.732-0.52,0.72-0.96c0.136,1.03,0.206-0.435,0.96,0.24c0.73-0.423-0.655-0.743,0-0.96    c0.827,0.383,2.489-2.961,1.92-4.08c1.023-1.025-0.384-5.234-1.68-5.76c-0.982-2.107-4.83-3.164-6.24-3.12    C10.459,24.48,10.326,42.499,23.494,38.595z M16.054,28.754c0.986-1.327,4.518-2.56,6-0.96c0.151,0.163-0.162,0.544-0.24,0.48    c0.172,0.142,0.791,0.011,0.96,0.24c0.146,0.197-0.482,0.23-0.48,0.24c0.217,0.967,1.93,2.744,1.92,3.6    c-0.041,3.536-4.354,5.05-8.16,2.88C15.286,33.192,14.604,30.707,16.054,28.754z"></path></g></g></svg>