<svg height='100px' width='100px'  fill="#000000" xmlns="http://www.w3.org/2000/svg" xmlns:xlink="http://www.w3.org/1999/xlink" version="1.1" x="0px" y="0px" viewBox="0 0 64 64" enable-background="new 0 0 64 64" xml:space="preserve"><g><g><path fill-rule="evenodd" clip-rule="evenodd" d="M45.582,21.234c-3.264-1.91-6.991-0.162-10.56,0    c-0.494,2.495,0.221,5.809,0,9.36c1.802,0.875,3.196,0.975,5.04,0.96c-0.624,0.631,0.388,0.189,0.24,0.96    c-1.821-0.266-2.975,2.121-3.36,4.081c0.811,0.873,1.433,0.263,2.16,0.479c-0.171,0.916-0.159,1.156,0.24,1.92    c2.284,0.445,2.042-1.638,4.08-1.439c1.4-2.237-1.403-3.837-2.881-5.28c0.188-0.053,0.279-0.201,0.24-0.48    c1.235,0.298,2.978,0.898,4.08-0.72c0.027,0.293,0.072,0.568,0.48,0.48C46.585,28.035,45.281,23.959,45.582,21.234z     M42.223,28.435c-2.207,0.125-2.521,0.667-5.04,0.48c-0.155-1.723-0.553-4.356,0-6c2.479-0.158,3.385,1.584,4.8,1.2    C42.384,25.659,42.295,26.851,42.223,28.435z"></path><path fill-rule="evenodd" clip-rule="evenodd" d="M33.822,42.595c-1.983-1.322-3.598-0.141-4.08,1.92    c-2.117,0.419-1.137,1.909-0.96,2.88c0.929-0.129,1.172,0.428,2.16,0.24c0.618,3.204,3.754-0.191,4.08-1.681    C34.604,44.631,33.74,43.807,33.822,42.595z"></path><path fill-rule="evenodd" clip-rule="evenodd" d="M51.343,38.274c-0.561-10.4-0.08-21.84-0.24-32.64    c-0.346-0.134-0.586-0.375-0.72-0.72c-5.233,0.007-9.247-0.604-13.92-0.24c-0.171-0.372-1.79-0.973-0.721-0.48    c-0.834,0.946-4.441-0.553-3.36,0c0.146,0.014,0.284,0.036,0.24,0.24c-1.177-0.373-1.733,0.596-2.16,0.24    c-0.116-0.756,1.1-0.18,1.2-0.72c-0.359-0.041-0.886,0.085-0.96-0.24c-0.08,0-0.16,0-0.24,0c0.848,0.694-1.219,1.162-0.96,0    c-0.56,0-1.12,0-1.68,0c0.738,0.709-2.404,1.174-0.96,0c-0.16,0-0.32,0-0.48,0c-0.858,0.778-2.183,0.012-3.12,0.96    c0.447-1.086-0.862-0.417-0.96-0.96c-0.08,0-0.16,0-0.24,0c-4.069,3.132-6.699,5.484-9.12,9.6c-0.356-0.105,0.095-0.307,0-0.72    c-0.893-0.252-0.471,0.81-0.96,0.96c0,1.92,0,3.84,0,5.76c0.398,0.649,0.398,2.95,0,3.6c0,0.64,0,1.28,0,1.92    c0.865,11.833-0.25,20.41,0.72,30.72c-0.807,0.697-0.316,2.637,0.48,3.84c3.58,0.788,7.229-0.433,10.08,0.479    c0.16,0,0.32,0,0.48,0c9.098-0.758,17.807-0.54,26.88-0.96c1.246-4.754-0.134-12.134,0.721-17.279    C51.343,40.515,51.343,39.395,51.343,38.274z M20.862,10.915c0,0.72,0,1.44,0,2.16c-0.964-0.309-2.515,0.185-4.08,0    C17.364,11.399,19.339,10.309,20.862,10.915z M48.942,56.994c-7.386-0.106-13.978-0.818-19.44-0.479    c0.039-0.281,0.438-0.203,0.72-0.24c-1.424-0.424-2.861-0.487-4.56,0.24c0.059-0.261,0.477-0.163,0.48-0.48    c-0.405,0.044-1.061-0.136-1.68,0c-0.24,0.053-1.389,0.71-1.2,0.72c-0.113-0.006-0.815-0.909-0.96-0.96    c-1.56-0.545-3.717,0.691-6.24,0.24c-0.155-1.442-0.459-2.639-0.72-3.359c0.033-0.997,0.158-0.049,0.48,0    c0.343-11.917-0.589-27.038,0-36.96c1.636-0.754,4.643,0.624,6.48,0c3.059-1.038,0.384-5.563,1.44-8.16    c9.75-0.081,14.595-0.559,25.2-0.48C48.786,23.645,49.011,39.537,48.942,56.994z"></path><path fill-rule="evenodd" clip-rule="evenodd" d="M33.103,25.314c-3.886-0.616-8.209-0.374-12.24,0    c-0.2,1.245,0.002,3.608-0.72,3.6c0.722,0.572,0.39,1.973-0.48,2.4c0.62,0.689,0.655,2.405-0.24,3.6    c-0.01-0.33,0.113-0.526,0.24-0.72c-3.744,0.312-0.023,5.194,1.44,5.521c2.146,0.478,4.771-2.389,4.32-4.801    c-0.522-0.438-1.689-0.23-1.92-0.96c0.462-2.238-0.062-3.506,0-6.48C25.945,25.952,32.874,29.135,33.103,25.314z"></path><path fill-rule="evenodd" clip-rule="evenodd" d="M39.103,40.675c-1.175,0.833-0.056,1.413-1.92,1.68    c-0.441,3.294-3.383,5.633-2.641,8.64c3.099,1.524,7.385,0.289,10.32,0c0.08-3.948-2.989-6.75-4.32-10.08    C39.809,41.088,39.668,40.669,39.103,40.675z M41.982,48.834c-1.279,0.209-2.264,0.166-4.08,0.24    C38.15,45.78,41.278,46.322,41.982,48.834z"></path><path fill-rule="evenodd" clip-rule="evenodd" d="M18.462,41.395c0.128-0.024,0.276-0.175,0-0.24    c-0.134,0.499-0.375,0.509-0.72,0.24c-0.053,0.907-0.553,1.367-1.2,1.68c-1.532,4.369,1.404,8.846,5.52,8.641    c3.464-0.173,6.112-4.336,4.8-7.681C25.625,40.883,21.224,40.867,18.462,41.395z M22.302,49.074c-0.509-0.37-1.069-0.69-1.68-0.96    c1.021-0.542-0.541-1.361-0.72-2.16c-0.062-2.232,2.265-2.494,4.32-1.92C25.555,45.94,24.539,48.722,22.302,49.074z"></path></g></g></svg>