<?xml version="1.0" encoding="utf-8"?>
<!-- Generator: Adobe Illustrator 18.1.1, SVG Export Plug-In . SVG Version: 6.00 Build 0)  -->
<!DOCTYPE svg PUBLIC "-//W3C//DTD SVG 1.1//EN" "http://www.w3.org/Graphics/SVG/1.1/DTD/svg11.dtd">
<svg version="1.1" id="Creative_Commons_ShareAlike"
	 xmlns="http://www.w3.org/2000/svg" xmlns:xlink="http://www.w3.org/1999/xlink" x="0px" y="0px" viewBox="0 0 20 20"
	 enable-background="new 0 0 20 20" xml:space="preserve">
<g>
	<path fill-rule="evenodd" clip-rule="evenodd" d="M9.9876251,0.4000748c-2.6591191,0-4.9101214,0.9281028-6.7521672,2.7837684
		C1.3448143,5.1039481,0.4,7.3761907,0.4,10s0.9448143,4.8802423,2.8354578,6.7680969
		c1.8900752,1.8881855,4.1411095,2.8318291,6.7521672,2.8318291c2.6432791,0,4.9342718-0.9518642,6.8728256-2.8558292
		C18.6865063,14.9361916,19.6000004,12.6879787,19.6000004,10s-0.9293022-4.9599214-2.7875786-6.8161569
		C14.953846,1.3281776,12.6789637,0.4000748,9.9876251,0.4000748z M10.011775,2.1277013
		c2.178793,0,4.0288782,0.7681441,5.5511284,2.3041921C17.1006908,5.9518018,17.8694344,7.8077369,17.8694344,10
		c0,2.2078028-0.752634,4.0400085-2.2587729,5.4963474c-1.5861177,1.5679379-3.4523134,2.3516521-5.5988865,2.3516521
		c-2.1468434,0-3.9969287-0.7760944-5.5509768-2.3279228C2.9069021,13.9679489,2.1299665,12.1280937,2.1299665,10
		c0-2.1281233,0.7850039-3.9840589,2.3550117-5.5681067C5.9909663,2.8958454,7.8329821,2.1277013,10.011775,2.1277013z"/>
	<path d="M5.7325802,8.645031C6.1156154,6.2298093,7.815702,4.9384093,9.9465857,4.9384093
		c3.0648956,0,4.9325314,2.2242126,4.9325314,5.1893296c0,2.8936272-1.9874849,5.1415701-4.9804115,5.1415701
		c-2.0591235,0-3.9027591-1.2673998-4.2380667-3.7543812h2.4184608c0.0717621,1.2914,0.9098034,1.7457771,2.1070042,1.7457771
		c1.3646307,0,2.2508526-1.2676401,2.2508526-3.2047558c0-2.0326042-0.7664042-3.1086655-2.2030935-3.1086655
		c-1.0533819,0-1.9631844,0.382617-2.1547632,1.6977472L8.7820568,8.641221l-1.9035473,1.9033947L4.9749641,8.641221
		L5.7325802,8.645031z"/>
</g>
</svg>
