<?xml version="1.0" encoding="utf-8"?>
<!-- Generator: Adobe Illustrator 18.1.1, SVG Export Plug-In . SVG Version: 6.00 Build 0)  -->
<!DOCTYPE svg PUBLIC "-//W3C//DTD SVG 1.1//EN" "http://www.w3.org/Graphics/SVG/1.1/DTD/svg11.dtd">
<svg version="1.1" id="Creative_Commons_NonCommercial_EU"
	 xmlns="http://www.w3.org/2000/svg" xmlns:xlink="http://www.w3.org/1999/xlink" x="0px" y="0px" viewBox="0 0 20 20"
	 enable-background="new 0 0 20 20" xml:space="preserve">
<path d="M16.8120995,3.18379C14.9535074,1.3275399,12.6788769,0.4,9.9876671,0.4
	C7.3281074,0.4,5.0775375,1.3275399,3.2353275,3.18379C1.3445175,5.10391,0.4,7.3755999,0.4,10
	c0,2.6238298,0.9445174,4.8802795,2.8353274,6.76758c1.89024,1.8884697,4.1408396,2.8324203,6.7523394,2.8324203
	c2.6431799,0,4.9341898-0.9521408,6.8724594-2.8558502C18.6865005,14.9359598,19.6000004,12.6877003,19.6000004,10
	C19.6000004,7.3117299,18.6706867,5.0394702,16.8120995,3.18379z M15.6103268,15.4960899
	c-1.5861263,1.5679798-3.4523392,2.3513699-5.5986271,2.3513699c-2.1468625,0-3.9972625-0.7757702-5.5511723-2.3279095
	C2.9066174,13.9673796,2.1296775,12.1275396,2.1296775,10c0-0.8999996,0.1420798-1.7507696,0.4230299-2.5529099l2.5438502,1.1258698
	H4.9131675v1.14081h0.9003c0,0.16113-0.0161099,0.3216896-0.0161099,0.4822197v0.2736607H4.9131675v1.14081h1.0447197
	c0.1447201,0.8519402,0.4661131,1.5427799,0.9000001,2.0894394c0.9000001,1.1894703,2.3463898,1.8322506,3.9213896,1.8322506
	c1.0289106,0,1.9605608-0.3052807,2.5072231-0.6111603l-0.3861332-1.7835903
	c-0.3374996,0.1769705-1.0921793,0.4177799-1.8316193,0.4177799c-0.8039103,0-1.5588903-0.2408094-2.0733604-0.8197193
	c-0.2411098-0.2730598-0.4177799-0.6427803-0.5299797-1.125h3.4939499l4.9646425,2.1975594
	C16.5800476,14.4173803,16.1435471,14.9804802,15.6103268,15.4960899z M9.3665771,10.4696503l-0.0210896-0.01614l0.0363293,0.01614
	H9.3665771z M12.3554468,9.7137699h0.1435528v-1.14081H9.7779074L8.6725273,8.0836897
	C8.7677469,7.8698201,8.8802471,7.6785102,9.0115004,7.52881c0.4983568-0.6117001,1.2052765-0.86835,1.9769669-0.86835
	c0.7072201,0,1.3658104,0.20859,1.7835903,0.38553l0.4499998-1.8322201
	c-0.5789099-0.2566199-1.4302797-0.4816198-2.4105577-0.4816198c-1.5105324,0-2.7963924,0.6105299-3.7124996,1.6388397
	C6.8956871,6.6059799,6.7193174,6.8696499,6.5593572,7.14853L3.4023373,5.75137
	c0.30585-0.4587898,0.6656101-0.8993998,1.0822203-1.31952c1.5064497-1.53633,3.3480296-2.3045099,5.527142-2.3045099
	c2.1785078,0,4.0289078,0.7681799,5.5511675,2.3045099C17.1003666,5.9517698,17.8691177,7.8074198,17.8691177,10
	c0,0.7224598-0.0820179,1.4039097-0.2437515,2.0460901L12.3554468,9.7137699z"/>
</svg>
