<?xml version="1.0" encoding="utf-8"?>
<!-- Generator: Adobe Illustrator 18.1.1, SVG Export Plug-In . SVG Version: 6.00 Build 0)  -->
<!DOCTYPE svg PUBLIC "-//W3C//DTD SVG 1.1//EN" "http://www.w3.org/Graphics/SVG/1.1/DTD/svg11.dtd">
<svg version="1.1" id="Creative_Commons_Share" xmlns="http://www.w3.org/2000/svg" xmlns:xlink="http://www.w3.org/1999/xlink"
	 x="0px" y="0px" viewBox="0 0 20 20" enable-background="new 0 0 20 20" xml:space="preserve">
<g>
	<path d="M9.9873838,0.4001335c-2.6588812,0-4.9099846,0.9275125-6.75214,2.7837079
		c-1.8901842,1.9200635-2.8352437,4.1916862-2.8352437,6.816009c0,2.624052,0.9450595,4.8798351,2.8352437,6.7676802
		c1.8901839,1.8884144,4.1412873,2.8323364,6.75214,2.8323364c2.6434021,0,4.9346447-0.9521122,6.8734293-2.8557663
		c1.8257465-1.8081665,2.7391872-4.0563297,2.7391872-6.7442503c0-2.6881909-0.9292526-4.9603839-2.7872181-6.816009
		C14.9542475,1.327646,12.6788149,0.4001335,9.9873838,0.4001335z M10.0114164,2.1274226
		c2.1793423,0,4.0293875,0.7681572,5.5516033,2.3044417c1.5380239,1.519875,2.3067522,3.3754706,2.3067522,5.567986
		c0,2.2080545-0.7528877,4.0402203-2.2587214,5.4962273c-1.5860853,1.5679331-3.4525404,2.3519011-5.5996342,2.3519011
		c-2.1467996,0-3.9965448-0.7763481-5.5504088-2.3284712c-1.5538642-1.5514946-2.3308113-3.39188-2.3308113-5.5196571
		c0-2.1280475,0.7845669-3.9842424,2.3548105-5.567986C5.9908423,2.8955798,7.8329678,2.1274226,10.0114164,2.1274226z"/>
	<path d="M13.931818,7.2495613h-2.1002388V5.1589828c0-0.289731-0.2349529-0.5249844-0.5249844-0.5249844H6.0664101
		c-0.0158095-0.0005698-0.0316191-0.0005698-0.0468588,0C5.7476697,4.6585979,5.5402555,4.8865309,5.5414257,5.1589828v7.0688415
		c0,0.2900314,0.2349529,0.5249844,0.5249844,0.5249844h2.0999384v2.0905485c0,0.2900314,0.2349529,0.5249844,0.5249844,0.5249844
		h5.2404852c0.2900314,0,0.5249844-0.2349529,0.5249844-0.5249844V7.7745457
		C14.4568024,7.4847841,14.2218494,7.2495613,13.931818,7.2495613z M6.5913944,11.7025394V5.6839676h4.1905165v1.5655937H8.6913328
		c-0.0187502-0.0009003-0.0374994-0.0009003-0.0562487,0C8.3673124,7.2785401,8.164608,7.5053039,8.1663485,7.7745457v3.9279938
		H6.5913944z M13.4068327,8.29953v6.0188427H9.2163172V8.29953H13.4068327z"/>
</g>
</svg>
