<?xml version="1.0" encoding="utf-8"?>
<!-- Generator: Adobe Illustrator 18.1.1, SVG Export Plug-In . SVG Version: 6.00 Build 0)  -->
<!DOCTYPE svg PUBLIC "-//W3C//DTD SVG 1.1//EN" "http://www.w3.org/Graphics/SVG/1.1/DTD/svg11.dtd">
<svg version="1.1" id="Creative_Commons_Attribution"
	 xmlns="http://www.w3.org/2000/svg" xmlns:xlink="http://www.w3.org/1999/xlink" x="0px" y="0px" viewBox="0 0 20 20"
	 enable-background="new 0 0 20 20" xml:space="preserve">
<g>
	<path d="M12.5831995,7.623167c0-0.3424749-0.2780056-0.6199102-0.6199102-0.6199102H8.0365305
		c-0.3423228,0-0.6199102,0.2774353-0.6199102,0.6199102v3.9269085h1.095253v4.6499271h2.9759235v-4.6499271h1.0954027V7.623167z"/>
	<circle cx="9.999836" cy="5.1432257" r="1.3432431"/>
	<path fill-rule="evenodd" clip-rule="evenodd" d="M9.9878206,0.4001497c-2.659369,0-4.9103537,0.9278255-6.7523851,2.7837467
		C1.3448069,5.1039863,0.4,7.3759108,0.4,10c0,2.6237888,0.9448069,4.8802042,2.8354356,6.7680435
		c1.8900607,1.8878708,4.141077,2.8318062,6.7523851,2.8318062c2.6431379,0,4.9341125-0.9515553,6.872653-2.8558044
		C18.6865139,14.9364529,19.6000004,12.6882277,19.6000004,10s-0.9292965-4.9601827-2.7875576-6.8161039
		C14.9538822,1.3279752,12.6789885,0.4001497,9.9878206,0.4001497z M10.0118494,2.1277628
		c2.1787767,0,4.0288477,0.767868,5.5510836,2.3041739C17.1007099,5.9518332,17.8694496,7.807754,17.8694496,10
		c0,2.2077856-0.7526302,4.0399771-2.2587576,5.4960041c-1.5861053,1.567955-3.4522858,2.3519325-5.5988426,2.3519325
		c-2.146976,0-3.9971972-0.7757874-5.5510831-2.3279028C2.9068825,13.9679184,2.1299529,12.1281071,2.1299529,10
		c0-2.128077,0.7849977-3.9840279,2.3549933-5.5680633C5.9909225,2.8956308,7.8329239,2.1277628,10.0118494,2.1277628z"/>
</g>
</svg>
