<?xml version="1.0" encoding="utf-8"?>
<!-- Generator: Adobe Illustrator 18.1.1, SVG Export Plug-In . SVG Version: 6.00 Build 0)  -->
<!DOCTYPE svg PUBLIC "-//W3C//DTD SVG 1.1//EN" "http://www.w3.org/Graphics/SVG/1.1/DTD/svg11.dtd">
<svg version="1.1" id="Creative_Commons_Remix" xmlns="http://www.w3.org/2000/svg" xmlns:xlink="http://www.w3.org/1999/xlink"
	 x="0px" y="0px" viewBox="0 0 20 20" enable-background="new 0 0 20 20" xml:space="preserve">
<g>
	<path d="M9.9873838,0.4002835c-2.6588812,0-4.9099846,0.9275126-6.75214,2.7837076
		C1.3450596,5.1040545,0.4000001,7.3756776,0.4000001,10c0,2.6237526,0.9450595,4.8795357,2.8352437,6.7673798
		c1.8901839,1.8884144,4.1412873,2.8323364,6.75214,2.8323364c2.6434021,0,4.9346447-0.9521122,6.8734293-2.8557663
		C18.6865597,14.9357843,19.6000004,12.6876202,19.6000004,10c0-2.6881905-0.9292526-4.9604135-2.7872181-6.8160086
		C14.9542475,1.3277961,12.6788149,0.4002835,9.9873838,0.4002835z M10.0114164,2.1275725
		c2.1793423,0,4.0293875,0.7681572,5.5516033,2.3044419C17.1010437,5.9518895,17.869772,7.8074846,17.869772,10
		c0,2.2077551-0.7528877,4.0399208-2.2587214,5.4959278c-1.5860853,1.567934-3.4525404,2.3519001-5.5996342,2.3519001
		c-2.1467996,0-3.9965448-0.7763462-5.5504088-2.3284712C2.9071434,13.9678631,2.1301963,12.1274767,2.1301963,10
		c0-2.128077,0.7845669-3.9842725,2.3548105-5.5679855C5.9908423,2.8957298,7.8329678,2.1275725,10.0114164,2.1275725z"/>
	<path d="M16.2784081,10.1699152l-1.911273-0.7944965v-2.38061l-5.8714867-2.444448L5.8783455,5.6999269v2.7227798
		l0.0275393,0.0116997L3.597363,9.3953381v2.4673071l2.4673071,1.0575886l2.4804769-1.0265398l0.1675749,0.0668077
		l5.0251513,2.0717993l0.1124973,0.0468884l0.1124964-0.0468884l2.3249311-0.993721l0.1781044-0.0749979v-2.7186689
		L16.2784081,10.1699152z M13.5503788,13.3122025l-0.0234289-0.0093603v0.0146399l-4.4014406-1.8239765V9.7580271
		l4.4014406,1.7987766v0.0562487l0.0234289,0.0099592V13.3122025z M13.8468599,11.095088l-1.3953781-0.5976429l1.5025949-0.6439304
		l1.4331474,0.5958719L13.8468599,11.095088z M15.8659201,12.5604839l-1.715559,0.7388182v-1.6803999l1.715559-0.7218685V12.5604839
		z"/>
</g>
</svg>
