<?xml version="1.0" encoding="utf-8"?>
<!-- Generator: Adobe Illustrator 18.1.1, SVG Export Plug-In . SVG Version: 6.00 Build 0)  -->
<!DOCTYPE svg PUBLIC "-//W3C//DTD SVG 1.1//EN" "http://www.w3.org/Graphics/SVG/1.1/DTD/svg11.dtd">
<svg version="1.1" id="Creative_Commons_NoDerivs" xmlns="http://www.w3.org/2000/svg" xmlns:xlink="http://www.w3.org/1999/xlink"
	 x="0px" y="0px" viewBox="0 0 20 20" enable-background="new 0 0 20 20" xml:space="preserve">
<g>
	<path fill-rule="evenodd" clip-rule="evenodd" d="M9.9876251,0.4000748c-2.6591191,0-4.9101214,0.9275328-6.7521672,2.7837684
		C1.3448143,5.1039481,0.4,7.3755903,0.4,10c0,2.6238098,0.9448143,4.8802423,2.8354578,6.7675266
		c1.8900752,1.8884563,4.1411095,2.8323994,6.7521672,2.8323994c2.6432791,0,4.9342718-0.9521332,6.8728256-2.8558292
		C18.6865063,14.9358912,19.6000004,12.6876793,19.6000004,10c0-2.6882491-0.9293022-4.9605212-2.7875786-6.8161569
		C14.953846,1.3276075,12.6789637,0.4000748,9.9876251,0.4000748z M10.011775,2.1274014
		c2.178793,0,4.0288782,0.7681739,5.5511284,2.304462C17.1006908,5.9518013,17.8694344,7.8074369,17.8694344,10
		c0,2.2078028-0.752634,4.0400085-2.2587729,5.496047c-1.5861177,1.5679674-3.4523134,2.3513517-5.5988865,2.3513517
		c-2.1468434,0-3.9970789-0.7757645-5.5509768-2.3279219C2.9069021,13.9673491,2.1299665,12.1275234,2.1299665,10
		c0-2.1286936,0.7850039-3.9843588,2.3550117-5.5681367C5.9909663,2.8955753,7.8329821,2.1274014,10.011775,2.1274014z"/>
	<g>
		<path fill-rule="evenodd" clip-rule="evenodd" d="M13.6269865,7.7248178H6.6488314v1.6529269h6.9781551V7.7248178z
			 M13.6269865,10.8097534H6.6488314v1.6529274h6.9781551V10.8097534z"/>
	</g>
</g>
</svg>
