<?xml version="1.0" encoding="utf-8"?>
<!-- Generator: Adobe Illustrator 18.1.1, SVG Export Plug-In . SVG Version: 6.00 Build 0)  -->
<!DOCTYPE svg PUBLIC "-//W3C//DTD SVG 1.1//EN" "http://www.w3.org/Graphics/SVG/1.1/DTD/svg11.dtd">
<svg version="1.1" id="Creative_Commons_NonCommercial_US"
	 xmlns="http://www.w3.org/2000/svg" xmlns:xlink="http://www.w3.org/1999/xlink" x="0px" y="0px" viewBox="0 0 20 20"
	 enable-background="new 0 0 20 20" xml:space="preserve">
<path d="M9.9876671,0.4c2.6912098,0,4.9664097,0.92784,6.8250008,2.7837899C18.6706867,5.04004,19.6000004,7.3119998,19.6000004,10
	s-0.9134998,4.9362297-2.7392731,6.7441502c-1.9388704,1.9040108-4.2298803,2.8558502-6.8730602,2.8558502
	c-2.61093,0-4.8620996-0.9436512-6.7523394-2.8318195C1.3448175,14.8802795,0.4,12.6238298,0.4,10
	S1.3448175,5.10391,3.2353275,3.18379C5.0775375,1.32784,7.3287072,0.4,9.9876671,0.4z M2.5597575,7.4212899
	c-0.28653,0.81006-0.42978,1.66962-0.42978,2.5787101c0,2.1281404,0.7769399,3.9679804,2.3308499,5.5198202
	c1.5542102,1.5521402,3.4040098,2.3282404,5.5508723,2.3282404c2.1468878,0,4.0131006-0.7836914,5.5992279-2.3519707
	c0.5308495-0.5132704,0.9679489-1.0728598,1.3113289-1.6795797l-3.6187496-1.6116304
	c-0.2455196,1.2175798-1.3306799,2.0402403-2.64258,2.1369305v1.4797802H9.5590572v-1.4797802
	c-1.0775404-0.0123301-2.1184497-0.4526405-2.9141397-1.1496305l1.3224597-1.3332901
	c0.6366,0.5994005,1.2732301,0.8686504,2.1427503,0.8686504c0.5630999,0,1.1876993-0.2203197,1.1876993-0.9542103
	c0-0.2601299-0.10077-0.4409094-0.2595596-0.5768394L10.1233273,10.78897L8.983387,10.2815504
	c-0.5636702-0.25107-1.0412097-0.4637709-1.5205197-0.6767702L2.5597575,7.4212899z M10.0116997,2.12764
	c-2.1785126,0-4.0206923,0.7681501-5.5265722,2.3044798c-0.4101276,0.4134002-0.7663801,0.84552-1.06932,1.2963901
	l3.6697199,1.6338902c0.3316498-1.0177798,1.2990303-1.6350598,2.4735298-1.7041802V4.1784101h1.1018696v1.4798098
	c0.7593603,0.0366001,1.59198,0.2446203,2.4123001,0.88065l-1.2609272,1.2963901
	C11.3470573,7.5050802,10.7593575,7.27246,10.1710873,7.27246c-0.4772701,0-1.1507998,0.1470599-1.1507998,0.7461901
	c0,0.0914097,0.0304794,0.1719904,0.0861301,0.2437496l1.22754,0.5463905l0.8308792,0.3703194
	c0.5314503,0.2364302,1.0388699,0.4623003,1.5415802,0.6861305l4.9189491,2.1902399
	c0.1629009-0.6445503,0.2443504-1.3297796,0.2443504-2.05548c0-2.1922798-0.7687492-4.0482302-2.3068495-5.5678802
	C14.0406075,2.8957901,12.1908073,2.12764,10.0116997,2.12764z"/>
</svg>
