<?xml version="1.0" encoding="utf-8"?>
<!-- Generator: Adobe Illustrator 18.1.1, SVG Export Plug-In . SVG Version: 6.00 Build 0)  -->
<!DOCTYPE svg PUBLIC "-//W3C//DTD SVG 1.1//EN" "http://www.w3.org/Graphics/SVG/1.1/DTD/svg11.dtd">
<svg version="1.1" id="Creative_Commons" xmlns="http://www.w3.org/2000/svg" xmlns:xlink="http://www.w3.org/1999/xlink" x="0px"
	 y="0px" viewBox="0 0 20 20" enable-background="new 0 0 20 20" xml:space="preserve">
<path d="M7.6513672,11.6279907c-0.406189,0-0.7128906-0.1484985-0.9199219-0.4454346
	c-0.2089844-0.2948608-0.3125-0.6893921-0.3125-1.1815796c0-1.0839844,0.4100952-1.6270142,1.2324219-1.6270142
	c0.1640625,0,0.3417969,0.0547485,0.5332031,0.1641235s0.3534546,0.3007812,0.484375,0.5742188l1.2324219-0.640625
	C9.4091797,7.5849609,8.5927734,7.1416016,7.4540405,7.1416016c-0.7783203,0-1.421814,0.2578125-1.9295654,0.7714844
	C5.0146484,8.4287109,4.758728,9.1239624,4.758728,10.0009766c0,0.8984375,0.2530518,1.5996094,0.7559204,2.1035156
	c0.5039062,0.5039062,1.1680298,0.7539062,1.9882812,0.7539062c0.515625,0,0.9863281-0.1289062,1.413147-0.3847046
	c0.4266968-0.2579346,0.7606812-0.6113892,1.0028687-1.0606079l-1.1347656-0.5742188
	C8.5654297,11.3642578,8.187439,11.6279907,7.6513672,11.6279907z M12.9579468,11.6279907
	c-0.406189,0-0.7127686-0.1484985-0.9199219-0.4454346c-0.2089844-0.2948608-0.3125-0.6893921-0.3125-1.1815796
	c0-1.0839844,0.4102173-1.6270142,1.2324219-1.6270142c0.1738892,0,0.3574829,0.0547485,0.5488892,0.1641235
	c0.1924438,0.109375,0.3535156,0.3007812,0.4863281,0.5742188l1.2147827-0.640625
	c-0.4824219-0.8867188-1.2929077-1.3300781-2.4315796-1.3300781c-0.7773438,0-1.4208984,0.2578125-1.9296875,0.7714844
	c-0.5097046,0.515625-0.7637329,1.2108765-0.7637329,2.0878906c0,0.8984375,0.2481079,1.5996094,0.7471313,2.1035156
	c0.4980469,0.5039062,1.1630859,0.7539062,1.9960938,0.7539062c0.5028687,0,0.9696655-0.1289062,1.3955078-0.3847046
	c0.4277954-0.2579346,0.7675781-0.6113892,1.0195923-1.0606079l-1.1504517-0.5742188
	C13.8720703,11.3642578,13.4931641,11.6279907,12.9579468,11.6279907z M16.8128052,3.1838379
	c-1.8585815-1.8562012-4.1339722-2.7836914-6.8254395-2.7836914c-2.6588745,0-4.9099731,0.9274902-6.7521362,2.7836914
	c-1.8901978,1.9200439-2.8352051,4.1916504-2.8352051,6.815979c0,2.6240845,0.9450073,4.8798828,2.8352051,6.7677002
	c1.8901978,1.8884277,4.1412964,2.8323364,6.7521362,2.8323364c2.6434326,0,4.9346924-0.9520874,6.8734741-2.8557739
	c1.8257446-1.8081665,2.7391357-4.0563354,2.7391357-6.7442627C19.5999756,7.3116455,18.6707764,5.0394287,16.8128052,3.1838379z
	 M15.6110229,15.4960327c-1.5860596,1.5679932-3.4525146,2.3519287-5.5996094,2.3519287
	c-2.1467896,0-3.996521-0.7763672-5.550415-2.3284912c-1.553833-1.5514526-2.3308105-3.3918457-2.3308105-5.5196533
	c0-2.1280518,0.7845459-3.9842529,2.3547974-5.5679932c1.5058594-1.5362549,3.3479614-2.3044434,5.5264282-2.3044434
	c2.1793213,0,4.0294189,0.7681885,5.5516357,2.3044434c1.5380249,1.5198975,2.3067017,3.3754883,2.3067017,5.5679932
	C17.869751,12.2078857,17.1168823,14.0400391,15.6110229,15.4960327z"/>
</svg>
