<?xml version="1.0" encoding="utf-8"?>
<!-- Generator: Adobe Illustrator 18.1.1, SVG Export Plug-In . SVG Version: 6.00 Build 0)  -->
<!DOCTYPE svg PUBLIC "-//W3C//DTD SVG 1.1//EN" "http://www.w3.org/Graphics/SVG/1.1/DTD/svg11.dtd">
<svg version="1.1" id="Creative_Commons_Public_Domain"
	 xmlns="http://www.w3.org/2000/svg" xmlns:xlink="http://www.w3.org/1999/xlink" x="0px" y="0px" viewBox="0 0 20 20"
	 enable-background="new 0 0 20 20" xml:space="preserve">
<g>
	<path fill-rule="evenodd" clip-rule="evenodd" d="M9.9874611,0.4000747c-2.6591191,0-4.9101219,0.9278328-6.7521672,2.7837682
		C1.3446503,5.1039481,0.3998359,7.3758903,0.3998359,10c0,2.6238098,0.9448143,4.8799419,2.8354578,6.767828
		c1.8900752,1.888155,4.1411095,2.832098,6.7521672,2.832098c2.6432791,0,4.9342718-0.9518337,6.8728256-2.8558292
		C18.6863422,14.9361916,19.5998363,12.6879787,19.5998363,10c0-2.6882491-0.9293022-4.9602213-2.7875786-6.8161573
		C14.9536819,1.3279074,12.6787996,0.4000747,9.9874611,0.4000747z M10.011611,2.1277013
		c2.178793,0,4.0288782,0.767874,5.5511284,2.3041921C17.1005268,5.9518013,17.8692703,7.8077369,17.8692703,10
		c0,2.2078028-0.752634,4.0400085-2.2587729,5.496047c-1.5861177,1.5679674-3.4523134,2.3519526-5.5988865,2.3519526
		c-2.1468434,0-3.9970789-0.7760944-5.5509768-2.3282223C2.906738,13.9679489,2.1298025,12.1278229,2.1298025,10
		c0-2.1280937,0.7850039-3.9840589,2.3550117-5.5681067C5.9908023,2.8955753,7.832818,2.1277013,10.011611,2.1277013z"/>
	<g>
		<path fill-rule="evenodd" clip-rule="evenodd" d="M6.8196077,8.2785234h1.0805912
			c0.6036835,0,0.8569422,0.290638,0.8569422,0.8197136c0,0.4098864-0.2160587,0.8048038-0.8197141,0.8048038H6.8196077V8.2785234z
			 M5.4930463,12.6009493h1.3414993v-1.7141266h1.0357718c1.8184681,0,2.2133827-1.0880909,2.2133827-1.7959061
			c0-1.0508614-0.5291061-1.7961755-1.9599447-1.7961755H5.4930463V12.6009493z"/>
		<path fill-rule="evenodd" clip-rule="evenodd" d="M10.4449272,12.6009493h2.0569038
			c1.6171675,0,2.7049589-0.7675734,2.7049589-2.6530886c0-1.8855457-1.0877914-2.6531196-2.7049589-2.6531196h-2.0569038
			V12.6009493z M11.7711868,8.4127121h0.7529039c0.998723,0,1.3564396,0.6782045,1.3564396,1.5351486
			c0,0.8569126-0.3577166,1.5351477-1.3488188,1.5351477h-0.7605247V8.4127121z"/>
	</g>
</g>
</svg>
