<?xml version="1.0" encoding="utf-8"?>
<!-- Generator: Adobe Illustrator 18.1.1, SVG Export Plug-In . SVG Version: 6.00 Build 0)  -->
<!DOCTYPE svg PUBLIC "-//W3C//DTD SVG 1.1//EN" "http://www.w3.org/Graphics/SVG/1.1/DTD/svg11.dtd">
<svg version="1.1" id="Notifications_off" xmlns="http://www.w3.org/2000/svg" xmlns:xlink="http://www.w3.org/1999/xlink" x="0px"
	 y="0px" viewBox="0 0 20 20" enable-background="new 0 0 20 20" xml:space="preserve">
<path fill-rule="evenodd" clip-rule="evenodd" d="M18.8103123,17.4055691L2.5969324,1.191946
	c-0.1943359-0.194275-0.5095215-0.194275-0.7038574,0L1.1894617,1.8955593c-0.1943359,0.194397-0.1943359,0.5094604,0,0.7037964
	l16.213623,16.2136841c0.1943359,0.1942749,0.5092773,0.1942139,0.7038574-0.0001831l0.7033691-0.7036133
	C19.0048923,17.9148464,19.0048923,17.599966,18.8103123,17.4055691z"/>
<path d="M14.999999,8.3798828v3.8010254l1.999999,1.9998779V8.3798828C16.6777325,8.453064,16.3447247,8.5,15.999999,8.5
	C15.6552725,8.5,15.3222647,8.453064,14.999999,8.3798828z M15.999999,1c-1.6572266,0-3,1.3428955-3,3
	c0,1.6571655,1.3427734,3.000061,3,3.000061S18.9999981,5.6571655,18.9999981,4C18.9999981,2.3428955,17.6572247,1,15.999999,1z
	 M4.999999,15.000061V7.8242188l-2-2v9.1758423c0,1.0996094,0.9003906,1.999939,2,1.999939h9.1757812l-2-1.999939H4.999999z
	 M11.6201162,5C11.546874,4.6776733,11.499999,4.3446655,11.499999,4c0-0.3446045,0.046875-0.6777344,0.1201172-1H5.8183584
	l2.0002441,2H11.6201162z"/>
</svg>
