<svg height='100px' width='100px'  fill="#000000" xmlns="http://www.w3.org/2000/svg" xmlns:xlink="http://www.w3.org/1999/xlink" version="1.1" x="0px" y="0px" viewBox="0 0 64 64" enable-background="new 0 0 64 64" xml:space="preserve"><g><g><path fill-rule="evenodd" clip-rule="evenodd" d="M54.774,15.268c-5.441-0.723-8.854-1.206-12-4.32    c-0.144-0.428,0.703-0.997,0-1.2c0.175,0.789-0.477,0.368-0.48,0c-1.123-2.451-0.397-4.229-1.68-6c-0.56,0-1.12,0-1.68,0    c-0.691,1.174-1.562,0.709-0.96,0c-0.16,0-0.32,0-0.48,0c-0.588,0.852-1.966-0.083-2.64,0.96c0.144-0.624-0.097-0.864-0.72-0.72    c0-0.08,0-0.16,0-0.24c-1.44,0-2.88,0-4.32,0c-0.224,0.561-3.896,0.499-3.6,0c-0.08,0-0.16,0-0.24,0    c-0.809,0.632-1.696,0.186-2.88,0.72c-0.622,0.308,0.185,1.435-0.24,1.44c-0.422,0.345-0.547,0.22-0.48-0.48    c-0.476,1.998-0.98,4.36-2.16,6.24c-1.801,1.001-4.812,2.067-6.48,2.4c-1.481,0.075-5.009-0.349-5.52,1.44c0,6.32,0,12.64,0,18.96    c0.504,0.763,0.812,1.353,0.48,2.399c3.224,7.977,9.76,12.641,15.84,17.761c3.247,0.913,4.474,3.846,7.92,4.56    c7.149-6.014,18.524-11.838,22.08-21.84C56.568,31.625,54.219,22.459,54.774,15.268z M52.854,35.668    c-1.012,3.596-3.799,5.063-5.28,7.92c-0.24,0-0.479,0-0.72,0c-0.294,0.361-0.798,1.74-1.2,1.199c-0.223,0.491-1.16,1.715-1.92,2.4    c-0.062-0.367,0.018-0.594,0.148-0.768c-1.059,0.889-2.273,1.092-2.549,2.688c-0.418-0.733-1.861,0.787-1.92,1.92    c-3.104-0.585-5.008,5.286-9.12,4.32c0.039-0.281,0.438-0.202,0.72-0.24c-7.521-5.646-14.626-10.659-18.96-18.24    c-0.971-2.358,0.3-6.25-0.72-8.879c0.576-2.585,0.192-6.838,0.24-10.32c7.288-0.712,12.924-3.076,13.44-10.56    c4.64,0,9.28,0,13.92,0c0.37,6.924,6.038,9.729,13.92,9.84C52.185,22.194,54.347,30.364,52.854,35.668z"></path><path fill-rule="evenodd" clip-rule="evenodd" d="M44.694,45.508c-0.134,0.213-0.278,0.394-0.429,0.557    C44.45,45.92,44.626,45.768,44.694,45.508z"></path><path fill-rule="evenodd" clip-rule="evenodd" d="M28.854,28.948c-0.162-2.079-1.73-2.75-2.64-4.08    c-0.696-0.167-2.509-0.011-1.92-0.72c-0.861,0.624-2.96,0.632-2.64,0.48c-0.695,0.134,0.368,0.375,0.24,0.72    c-0.449-0.191-0.879-0.401-1.44-0.48c-0.778,0.609,0.088,1.64-0.96,0.72c0.066,1.225-0.777,1.012,0,1.92    c-0.597-0.026-0.743-0.45-1.2,0c-0.328,1.678-0.192,2.493,0,4.8c0.566,0.234,0.917,0.683,1.44,0.96    c-0.293,0.027-0.568,0.071-0.48,0.48c1.359,1.082,2.739,2.138,4.56,2.159c3.1,0.037,4.681-2.324,6-4.32    c1.395,0.104,3.059-0.098,4.56,0.24c0.333,0.307,0.147,1.133,0.48,1.44c0.789,0.502,1.61,0.502,2.399,0    c0.454-0.426,0.002-1.759,0.961-1.68c0.321,2.681,3.341,2.036,3.359-0.48c2.292-0.124,0.587,3.298,1.68,3.84    c2.867,0.93,1.998-4.688,1.44-6C40.325,28.922,34.01,28.966,28.854,28.948z M24.294,33.027c-1.843-0.109-0.845-1.899-2.4-2.88    c0.215-2.723,2.667-2.945,4.08-2.16C28,29.113,26.486,33.158,24.294,33.027z"></path></g></g></svg>