<svg height='100px' width='100px'  fill="#000000" xmlns="http://www.w3.org/2000/svg" xmlns:xlink="http://www.w3.org/1999/xlink" version="1.1" x="0px" y="0px" viewBox="0 0 64 64" enable-background="new 0 0 64 64" xml:space="preserve"><g><g><path fill-rule="evenodd" clip-rule="evenodd" d="M18.141,28.194c-0.175-1.621-0.125-2.22-0.24-4.08    c-2.277-0.216-4.007-2.825-4.8,0.24c-0.25,0.969,0.196,3.055,0.72,4.32C15.513,28.767,16.217,27.871,18.141,28.194z"></path><path fill-rule="evenodd" clip-rule="evenodd" d="M26.061,28.194c0.175-0.675-0.118-2.689,0-4.08    c-2.421-0.263-4.199-2.647-5.04,0.24c-0.24,0.825,0.278,3.168,0.72,4.32C23.433,28.767,24.137,27.871,26.061,28.194z"></path><path fill-rule="evenodd" clip-rule="evenodd" d="M34.221,28.194c-0.314-1.125-0.247-2.633-0.24-4.08    c-2.418-0.317-3.852-2.505-5.04,0.24c0.633,1.639-0.199,3.256,0.96,4.32C31.593,28.767,32.297,27.871,34.221,28.194z"></path><path fill-rule="evenodd" clip-rule="evenodd" d="M42.141,28.194c-0.175-1.621-0.125-2.22-0.24-4.08    c-2.277-0.216-4.007-2.825-4.8,0.24c-0.251,0.969,0.196,3.055,0.72,4.32C39.513,28.767,40.217,27.871,42.141,28.194z"></path><path fill-rule="evenodd" clip-rule="evenodd" d="M50.061,24.114c-2.421-0.263-4.199-2.647-5.04,0.24    c-0.24,0.825,0.278,3.168,0.72,4.32c1.692,0.092,2.396-0.804,4.32-0.48C50.235,27.519,49.943,25.505,50.061,24.114z"></path><path fill-rule="evenodd" clip-rule="evenodd" d="M17.9,33.954c2.161-0.48,1.949,1.412,3.84,1.2c1.683-0.907,0.954-2.99,0.96-5.28    c-1.296-1.52-2.824,0.819-4.8-0.24C17.9,31.074,17.9,32.514,17.9,33.954z"></path><path fill-rule="evenodd" clip-rule="evenodd" d="M33.98,33.954c2.747,0.343,4.201,2.383,5.04-0.479    c0.181-0.618-0.591-2.032-0.24-3.6c-1.101-1.471-2.707,0.562-5.04,0C34.16,30.895,33.919,32.576,33.98,33.954z"></path><path fill-rule="evenodd" clip-rule="evenodd" d="M41.9,33.954c2.161-0.48,1.948,1.412,3.84,1.2c1.684-0.907,0.954-2.99,0.96-5.28    c-1.296-1.52-2.823,0.819-4.8-0.24C41.9,31.074,41.9,32.514,41.9,33.954z"></path><path fill-rule="evenodd" clip-rule="evenodd" d="M26.061,33.954c1.754-0.234,2.045,0.995,3.36,1.2    c0.947-0.093,1.104-0.976,1.68-1.439c-0.518-1.542-0.157-2.529-0.72-4.081c-1.891-0.652-2.329,0.601-4.56,0.24    C26.135,31,26.067,32.508,26.061,33.954z"></path><path fill-rule="evenodd" clip-rule="evenodd" d="M57.021,17.395c-4.167-0.957-8.799-0.826-12.96-0.72    c-0.171-0.372-1.79-0.973-0.72-0.48c-1.172,0.476-4.301,0.114-4.8,0.48c-0.116-0.756,1.1-0.18,1.199-0.72    c-0.358-0.041-0.886,0.085-0.96-0.24c-0.08,0-0.159,0-0.239,0c0.61,0.793-0.619,0.818-0.96,0.24c0-0.08,0-0.16,0-0.24    c-0.48,0-0.96,0-1.44,0c1.062,0.707-2.18,0.817-0.72,0.48c-0.014-0.146-0.036-0.284-0.24-0.24c0-0.08,0-0.16,0-0.24    c-0.08,0-0.16,0-0.24,0c-0.588,0.852-1.965-0.083-2.64,0.96c0.241-0.801-0.333-0.787-0.96-0.72c0-0.08,0-0.16,0-0.24    c-1.36,0-2.72,0-4.08,0c-2.034,0.776-5.286-0.058-7.2,0.96c0.18-0.453,0.716-0.167,0.24-0.72c-3.186,0.723-12.11-0.957-14.16,1.44    c0,4,0,8,0,12c0.487,1.314,0.22,2.804,0.48,3.84c-0.16,0-0.32,0-0.48,0c0,0.48,0,0.96,0,1.44c0.657,0.759,0.261,3.28,0,4.56    c0,0.08,0,0.16,0,0.24c0.702,2.361,0.218,4.293,0.24,6.96c1.462,2.491,5.653,0.271,7.92,1.439c0.08,0,0.16,0,0.24,0    c5.567-0.434,12.418-0.8,18-0.479c5.952,0.341,12.63-0.226,19.2-0.24c1.722-0.004,3.985,0.631,5.28-0.72c0-0.24,0-0.48,0-0.72    c0.08,0,0.16,0,0.24,0c0-0.16,0-0.32,0-0.48C56.701,36.435,57.181,26.594,57.021,17.395z M55.101,44.994    c-4.395,0.167-7.646-0.767-11.76-0.24c-0.771,0.211-0.498-0.622-0.96-0.72c-0.289,0.89-3.454,0.241-4.32,0.48    c0.922-0.555-0.792-0.465-1.92-0.721c-0.149,0.247-0.146,0.826-1.2,0.721c1.243-0.888-1.935-0.7-2.16,0.239    c-0.839-1.623-2.651-0.187-4.08-0.96c-3.072,0.662-4.36-0.384-7.2,0.96c0.06-0.26,0.478-0.162,0.48-0.479    c-4.12-0.55-8.852,0.227-12-0.24c-0.65-9.228-0.25-15.464-0.24-24.24c12.886-0.587,28.586-0.787,44.88-0.72    C55.617,27.831,54.716,35.991,55.101,44.994z"></path><path fill-rule="evenodd" clip-rule="evenodd" d="M42.621,38.754c-0.038-0.282,0.041-0.681-0.24-0.72    c-0.542,0.645-2.561,0.776-2.16,0c-0.256,0.817-0.075-0.668-0.72-0.24c-0.454,0.027-0.167,0.794-0.721,0.721    c0.269-0.346,0.259-0.586-0.239-0.721c0.04,0.82-0.845-0.055-1.2,0.721c0.122-1.476-4.26-0.229-5.28,0    c0.189-0.043,0.277-0.21,0.24-0.48c-2.31,0.284-5.322-0.021-7.2,0c-3.47,0.041-8.583,0.209-10.56,0.96    c-0.047,0.928-0.008,1.769,0.24,2.4c4.419,0.381,7.495,0.359,11.04-0.48c5.989,0.371,13.768,0.232,20.16,0.24    c1.112,0.001,2.624,0.262,3.12-1.2c-0.125-0.354-0.355-0.604-0.479-0.96C46.206,39.073,44.898,38.241,42.621,38.754z"></path></g></g></svg>