<svg height='100px' width='100px'  fill="#000000" xmlns="http://www.w3.org/2000/svg" xmlns:xlink="http://www.w3.org/1999/xlink" version="1.1" x="0px" y="0px" viewBox="0 0 64 64" enable-background="new 0 0 64 64" xml:space="preserve"><g><path fill-rule="evenodd" clip-rule="evenodd" d="M53.646,46.857c-2.462-4.605-8.835-7.872-11.76-12.24   c1.924-3.238,2.153-8.286,2.16-12.24c-0.678-0.564-1.014-1.565-0.72-2.64c-0.443,0.406-1.562-1.061-1.2-2.88   c-0.531-0.902-2.195-0.601-1.2-1.44c-1.129-0.128-1.146-1.904-2.4-1.2c0.785-1.822-2.044-1.683-2.399-3.12   c-1.579-0.6-3.892-1.076-4.56-1.92c-1.05,0.384-1.843-0.125-3.12,0.48c1.247-1.041-0.686-0.421-1.2-0.96c-0.64,0-1.28,0-1.92,0   c-9.438,1.391-14.868,7.7-16.32,16.32c0,1.12,0,2.24,0,3.36c1.34,8.551,8.05,16.464,18.24,15.6c2.419-0.205,4.891-0.878,6.96-1.92   c2.295,1.308,4.494,3.714,6.72,6c2.075,2.131,4.264,5.555,6.48,6.239C52.202,55.78,55.739,50.771,53.646,46.857z M27.486,15.657   c11.34,0.561,13.849,18.748,2.64,21.12c-0.408,0.088-0.453-0.188-0.48-0.48c-1.18,0.456-1.574,1.441-2.4,0   c-2.432,1.4-3.172-0.867-6.96-0.96c1.49-0.79-0.994-1.349-1.68-2.159c-1.324-1.565-1.219-3.982-2.4-5.041   C16.083,20.34,20.935,16.948,27.486,15.657z M27.246,12.297c-0.785,0.914-2.12-0.109-2.4,1.2c-0.127-0.277-1.133-1.4-1.2-0.24   c-0.739-0.168-0.461-0.168-1.2,0C23.36,12.251,25.375,12.347,27.246,12.297z M50.525,52.138c-1.394-0.023-1.259-0.286-2.88-0.24   c-0.883-2.298-3.067-3.136-4.08-4.561c-0.135-0.189,0.183-0.545,0.24-0.479c-0.696-0.784-2.079-1.844-3.359-2.4   c1.201-0.302-0.518-2.46-1.921-2.399c0.135-0.543,0.375,0.291,0.721-0.24c-1.083-0.161-0.745-1.205-2.4-1.2   c0.94-1.596-1.504-1.195-1.68-2.4c-2.901,1.482-5.645,1.638-7.44,3.36c-0.803-0.217-0.21-0.537,0-0.96   c-11.961,0.572-18.168-10.256-13.92-20.88c0.823,0.601,0.735-0.982,0.72-0.96c1.665-2.382,4.342-4.51,7.44-5.52   c-0.857,1.143-3.053,0.947-3.12,2.88c-0.281-0.039-0.202-0.438-0.24-0.72c-9.575,6.64-5.874,22.644,5.04,24.48   c3.935,0.662,8.361-0.859,12-3.36c6.966-5.747,4.056-20.876-4.8-22.32c-0.418-0.489,0.179-0.471-0.24-0.96   c-0.382,1.195-1.697-0.634-2.4,0.24c-0.603-0.102,0.23-0.686,0.72-0.48c-0.138-0.792-1.553,0.302-1.44-0.24   c-0.087-0.808,1.04-0.4,1.44-0.72c2.028,0.579,3.428,0.83,4.8,1.92c0.683,0.542,1.938,0.597,2.4,0.96   c4.477,3.52,6.574,10.453,4.56,16.56c-0.487,1.478-1.829,2.953-0.72,4.32c2.616,3.224,9.285,8.404,11.521,11.28   C52.52,48.428,52.787,50.781,50.525,52.138z"></path></g></svg>