<svg height='100px' width='100px'  fill="#000000" xmlns="http://www.w3.org/2000/svg" xmlns:xlink="http://www.w3.org/1999/xlink" version="1.1" x="0px" y="0px" viewBox="0 0 64 64" enable-background="new 0 0 64 64" xml:space="preserve"><g><g><path fill-rule="evenodd" clip-rule="evenodd" d="M56.976,15.314c-2.128-0.555-3.761-0.12-5.761-0.72    c-0.59-1.998,1.053-5.715-0.239-7.68c-1.128-0.159-3.249-0.583-3.601-0.72c0.389,0.483-2.094,0.136-2.88,0.24    c0.211-0.792-1.771-0.344-0.479-0.24c0.146,0.014,0.284,0.036,0.239,0.24c-1.207-0.345-2,0.519-2.399,0.24    c0.225-0.648,1.082-0.43,0.24-0.96c-0.08,0-0.16,0-0.24,0c0.696,0.846-0.91,0.852-1.2,0.24c0-0.08,0-0.16,0-0.24    c-0.64,0-1.28,0-1.92,0c0.737,0.709-2.404,1.174-0.96,0c-0.16,0-0.32,0-0.48,0c-0.931,0.864-2.414-0.069-3.359,0.96    c0.483-1.204-1.091-0.349-1.2-0.96c-0.08,0-0.16,0-0.24,0c-0.349,0.371-0.936,0.504-1.68,0.48c0-0.16,0-0.32,0-0.48    c-0.64,0-1.28,0-1.92,0c-3.458,1.131-6.966-0.642-9.84,1.2c-0.643-0.617,0.643-0.343,0-0.96c-4.333,0.859-11.188-1.469-12.96,1.92    c0,3.68,0,7.36,0,11.04c0.775,10.957-0.114,21.386,0.48,32.16c2.727,1.289,6.43-0.038,9.84,0.72    c-0.062,1.488-0.031,4.741,0.48,5.28c0.89,0.939,2.923,0.042,4.8,0c9.888-0.223,24.917,0.406,35.28-0.24    C57.267,44.148,56.782,29.35,56.976,15.314z M9.455,48.914C8.733,37.052,9.057,22.8,8.975,9.074    c5.013-0.16,8.762,0.709,12.96,0.24c0.601-0.041,0.751,0.369,0.96,0.72c0.08,0,0.16,0,0.24,0c-0.545-1.225,3.456,0.408,4.08-0.96    c0.421,0.068,0.333,0.58,0.017,0.747c1.365,0.122,2.466,0.656,4.063-0.267c-0.06,0.261-0.478,0.163-0.48,0.48    c0.738-0.045,2.268,0.071,3.12-0.72c-0.021,0.34-0.04,0.68,0.239,0.72c3.711-0.399,7.343,0.855,11.28-0.96    c0.698,0.209,0.271,0.359,0.24,0.96c1.014,0.006,1.55-0.464,2.4,0c0.063,11.731,0.485,24.999,0.239,38.16    C35.277,48.594,24.553,49,9.455,48.914z M55.056,54.914c-4.743-0.971-9.802,0.95-12.721-0.72c-1.156-0.662,0.523,0.254-0.479,0.24    c-1.19-0.017-2.681-0.417-3.601,0.479c-1.064-0.372,0.13-0.659,0.48-0.96c-1.234-0.124-0.633-0.303-0.96,0.48    c-1.152-1.057-2.028-0.493-3.36,0c0.06-0.261,0.478-0.163,0.48-0.48c-0.564,0.227-2.214-0.347-2.64,0.721    c-0.462-0.098-0.19-0.931-0.96-0.721c-3.261,0.192-7.019-0.372-10.56,0.721c0.922-0.218-0.03-1.17-0.48-0.48    c-0.301-0.562-0.529-1.991-0.24-2.4c10.875-0.282,18.702,0.296,27.84-0.479c0.588,0.911,3.356,0.052,3.84-0.72    c0.106-12.5-0.896-22.507-0.48-33.601c1.424-0.144,2.14,0.421,3.601,0.24C54.87,29.051,55.183,41.73,55.056,54.914z"></path><path fill-rule="evenodd" clip-rule="evenodd" d="M27.232,9.821c-0.162-0.015-0.326-0.027-0.497-0.026    C26.931,9.906,27.099,9.891,27.232,9.821z"></path><path fill-rule="evenodd" clip-rule="evenodd" d="M29.375,12.915c-9.951-0.971-9.36,7.849-9.36,16.8c0,3.399-0.468,6.857,0,9.6    c1.583,9.28,17.58,6.2,14.4-4.561c0.495,0.212,0.909-0.791,0.48-0.72c-0.051,0.29-0.267,0.147-0.48,0    c0.408-3.111-0.705-4.932,0.96-6.72c-0.357-1.332-1.663-1.798-1.68-2.88c0.116,0.283,0.256,0.544,0.479,0.72    c-0.544-1.35-1.648-2.502-3.839-1.92c0.146-0.224,0.558-0.885-0.24-0.72c-6.229,0.146-5.686,7.53-4.32,12.24    c-0.352,0.005-0.761-1.012-0.72,0c0.233,1.591-0.131,2.642,0.96,3.601c1.509,0.229,2.198-0.362,2.88-0.96    c0.178-3.747-0.642-8.167,0.48-11.04c2.412-0.144,2.163,3.003,2.16,4.56c-0.005,3.06-0.389,5.891-0.24,8.64    c-2.002,3.451-6.304,3.486-8.16,0.96c-1.115-1.518-0.829-6.537-0.72-11.041c0.058-2.399-0.009-4.876,0-6.72    c0.041-8.096,8.872-9.862,11.76-4.32c0.618,1.185-0.239,3.968,2.16,4.08C38.28,17.328,33.578,13.324,29.375,12.915z"></path></g></g></svg>