<?xml version="1.0" encoding="UTF-8" standalone="no"?>
<!-- Created with Inkscape (http://www.inkscape.org/) -->

<svg
   xmlns:dc="http://purl.org/dc/elements/1.1/"
   xmlns:cc="http://creativecommons.org/ns#"
   xmlns:rdf="http://www.w3.org/1999/02/22-rdf-syntax-ns#"
   xmlns:svg="http://www.w3.org/2000/svg"
   xmlns="http://www.w3.org/2000/svg"
   xmlns:sodipodi="http://sodipodi.sourceforge.net/DTD/sodipodi-0.dtd"
   xmlns:inkscape="http://www.inkscape.org/namespaces/inkscape"
   width="417.30292"
   height="185.08757"
   id="svg5100"
   version="1.1"
   inkscape:version="0.48.4 r9939"
   sodipodi:docname="reactive.svg">
  <defs
     id="defs5102" />
  <sodipodi:namedview
     id="base"
     pagecolor="#ffffff"
     bordercolor="#666666"
     borderopacity="1.0"
     inkscape:pageopacity="0.0"
     inkscape:pageshadow="2"
     inkscape:zoom="2.8"
     inkscape:cx="124.53597"
     inkscape:cy="90.265491"
     inkscape:document-units="px"
     inkscape:current-layer="layer1"
     showgrid="false"
     fit-margin-top="0"
     fit-margin-left="0"
     fit-margin-right="0"
     fit-margin-bottom="0"
     inkscape:window-width="1920"
     inkscape:window-height="1018"
     inkscape:window-x="-8"
     inkscape:window-y="-8"
     inkscape:window-maximized="1" />
  <metadata
     id="metadata5105">
    <rdf:RDF>
      <cc:Work
         rdf:about="">
        <dc:format>image/svg+xml</dc:format>
        <dc:type
           rdf:resource="http://purl.org/dc/dcmitype/StillImage" />
        <dc:title />
      </cc:Work>
    </rdf:RDF>
  </metadata>
  <g
     inkscape:label="Ebene 1"
     inkscape:groupmode="layer"
     id="layer1"
     transform="translate(-42.062783,-48.255037)">
    <path
       style="fill:#333333;fill-opacity:1;stroke:none"
       inkscape:transform-center-y="-1.3290444"
       d="m 176.23216,159.95061 -4.82623,9.58781 -10.64272,-1.39652 10.271,10.04551 10.27104,10.04549 -2.53654,-14.14114 z"
       id="path5059"
       inkscape:connector-curvature="0"
       sodipodi:nodetypes="ccccccc" />
    <path
       style="fill:#1a1a1a;stroke:#333333;stroke-width:3.43208717999999990px;stroke-linecap:butt;stroke-linejoin:miter;stroke-opacity:1"
       d="M 171.88034,170.25477 120.65409,73.515907"
       id="path5061"
       inkscape:connector-curvature="0" />
    <path
       style="fill:#333333;fill-opacity:1;stroke:none"
       inkscape:transform-center-y="-1.3290444"
       d="m 248.36742,122.32957 -4.82623,-9.58781 -10.64273,1.39651 10.27101,-10.04551 10.27104,-10.04549 -2.53654,14.14115 z"
       id="path5030"
       inkscape:connector-curvature="0"
       sodipodi:nodetypes="ccccccc" />
    <path
       style="fill:#1a1a1a;stroke:#333333;stroke-width:3.43208717999999990px;stroke-linecap:butt;stroke-linejoin:miter;stroke-opacity:1"
       d="m 243.70914,112.33183 -51.22625,96.73886"
       id="path5032"
       inkscape:connector-curvature="0" />
    <path
       style="fill:#1a1a1a;stroke:#333333;stroke-width:8.58021832000000020;stroke-linecap:butt;stroke-linejoin:miter;stroke-miterlimit:4;stroke-opacity:1;stroke-dasharray:none"
       d="m 46.352892,72.15709 327.274018,0"
       id="path4002"
       inkscape:connector-curvature="0" />
    <path
       inkscape:connector-curvature="0"
       id="path4004"
       d="m 114.99464,209.44058 327.27401,0"
       style="fill:#1a1a1a;stroke:#333333;stroke-width:8.58021832000000020;stroke-linecap:butt;stroke-linejoin:miter;stroke-miterlimit:4;stroke-opacity:1;stroke-dasharray:none" />
    <path
       sodipodi:type="arc"
       style="fill:#333333;fill-opacity:1;stroke:none"
       id="path4006"
       sodipodi:cx="369.46429"
       sodipodi:cy="51.826466"
       sodipodi:rx="6.9642859"
       sodipodi:ry="6.9642859"
       d="m 376.42858,51.826466 c 0,3.846268 -3.11802,6.964285 -6.96429,6.964285 -3.84626,0 -6.96428,-3.118017 -6.96428,-6.964285 0,-3.846269 3.11802,-6.964286 6.96428,-6.964286 3.84627,0 6.96429,3.118017 6.96429,6.964286 z"
       transform="matrix(3.4320873,0,0,3.4320873,-1145.0717,-105.71588)" />
    <path
       transform="matrix(3.4320873,0,0,3.4320873,-1007.7882,-105.71588)"
       d="m 376.42858,51.826466 c 0,3.846268 -3.11802,6.964285 -6.96429,6.964285 -3.84626,0 -6.96428,-3.118017 -6.96428,-6.964285 0,-3.846269 3.11802,-6.964286 6.96428,-6.964286 3.84627,0 6.96429,3.118017 6.96429,6.964286 z"
       sodipodi:ry="6.9642859"
       sodipodi:rx="6.9642859"
       sodipodi:cy="51.826466"
       sodipodi:cx="369.46429"
       id="path4008"
       style="fill:#333333;fill-opacity:1;stroke:none"
       sodipodi:type="arc" />
    <path
       sodipodi:type="arc"
       style="fill:#333333;fill-opacity:1;stroke:none"
       id="path4010"
       sodipodi:cx="369.46429"
       sodipodi:cy="51.826466"
       sodipodi:rx="6.9642859"
       sodipodi:ry="6.9642859"
       d="m 376.42858,51.826466 c 0,3.846268 -3.11802,6.964285 -6.96429,6.964285 -3.84626,0 -6.96428,-3.118017 -6.96428,-6.964285 0,-3.846269 3.11802,-6.964286 6.96428,-6.964286 3.84627,0 6.96429,3.118017 6.96429,6.964286 z"
       transform="matrix(3.4320873,0,0,3.4320873,-1076.4299,31.567614)" />
    <path
       transform="matrix(3.4320873,0,0,3.4320873,-870.50471,31.567614)"
       d="m 376.42858,51.826466 c 0,3.846268 -3.11802,6.964285 -6.96429,6.964285 -3.84626,0 -6.96428,-3.118017 -6.96428,-6.964285 0,-3.846269 3.11802,-6.964286 6.96428,-6.964286 3.84627,0 6.96429,3.118017 6.96429,6.964286 z"
       sodipodi:ry="6.9642859"
       sodipodi:rx="6.9642859"
       sodipodi:cy="51.826466"
       sodipodi:cx="369.46429"
       id="path4012"
       style="fill:#333333;fill-opacity:1;stroke:none"
       sodipodi:type="arc" />
    <path
       sodipodi:nodetypes="ccccccc"
       inkscape:connector-curvature="0"
       id="path5041"
       d="m 111.08402,122.32957 -4.82623,-9.58781 -10.642725,1.39651 10.271005,-10.04551 10.27104,-10.04549 -2.53654,14.14115 z"
       inkscape:transform-center-y="-1.3290444"
       style="fill:#333333;fill-opacity:1;stroke:none" />
    <path
       inkscape:connector-curvature="0"
       id="path5043"
       d="M 106.42574,112.33183 55.199491,209.07069"
       style="fill:#1a1a1a;stroke:#333333;stroke-width:3.43208717999999990px;stroke-linecap:butt;stroke-linejoin:miter;stroke-opacity:1" />
    <path
       sodipodi:nodetypes="ccccccc"
       inkscape:connector-curvature="0"
       id="path5047"
       d="m 454.29262,122.32957 -4.82623,-9.58781 -10.64273,1.39651 10.27101,-10.04551 10.27104,-10.04549 -2.53654,14.14115 z"
       inkscape:transform-center-y="-1.3290444"
       style="fill:#333333;fill-opacity:1;stroke:none" />
    <path
       inkscape:connector-curvature="0"
       id="path5049"
       d="m 449.63434,112.33183 -51.22625,96.73886"
       style="fill:#1a1a1a;stroke:#333333;stroke-width:3.43208717999999990px;stroke-linecap:butt;stroke-linejoin:miter;stroke-opacity:1" />
    <path
       sodipodi:nodetypes="ccccccc"
       inkscape:connector-curvature="0"
       id="path5065"
       d="m 367.87062,166.46468 -1.83194,10.5765 -10.5893,1.75633 12.74685,6.62749 12.74688,6.62746 -6.53625,-12.79389 z"
       inkscape:transform-center-y="-1.3290444"
       style="fill:#333333;fill-opacity:1;stroke:none" />
    <path
       inkscape:connector-curvature="0"
       id="path5067"
       d="M 366.57868,177.70971 269.20315,80.837743"
       style="fill:#1a1a1a;stroke:#333333;stroke-width:3.43208717999999990px;stroke-linecap:butt;stroke-linejoin:miter;stroke-opacity:1" />
  </g>
</svg>
