<?xml version="1.0" encoding="UTF-8" standalone="no"?>
<!-- Created with Inkscape (http://www.inkscape.org/) -->

<svg
   xmlns:dc="http://purl.org/dc/elements/1.1/"
   xmlns:cc="http://creativecommons.org/ns#"
   xmlns:rdf="http://www.w3.org/1999/02/22-rdf-syntax-ns#"
   xmlns:svg="http://www.w3.org/2000/svg"
   xmlns="http://www.w3.org/2000/svg"
   xmlns:sodipodi="http://sodipodi.sourceforge.net/DTD/sodipodi-0.dtd"
   xmlns:inkscape="http://www.inkscape.org/namespaces/inkscape"
   width="126.21189"
   height="137.49718"
   id="svg5213"
   version="1.1"
   inkscape:version="0.48.4 r9939"
   sodipodi:docname="Neues Dokument 16">
  <defs
     id="defs3" />
  <sodipodi:namedview
     inkscape:document-units="mm"
     id="base"
     pagecolor="#ffffff"
     bordercolor="#666666"
     borderopacity="1.0"
     inkscape:pageopacity="0.0"
     inkscape:pageshadow="2"
     inkscape:zoom="1.5793042"
     inkscape:cx="367.12949"
     inkscape:cy="79.164416"
     inkscape:current-layer="layer1"
     showgrid="false"
     units="mm"
     fit-margin-top="0"
     fit-margin-left="0"
     fit-margin-right="0"
     fit-margin-bottom="0"
     inkscape:window-width="1920"
     inkscape:window-height="1018"
     inkscape:window-x="-8"
     inkscape:window-y="-8"
     inkscape:window-maximized="1" />
  <metadata
     id="metadata4">
    <rdf:RDF>
      <cc:Work
         rdf:about="">
        <dc:format>image/svg+xml</dc:format>
        <dc:type
           rdf:resource="http://purl.org/dc/dcmitype/StillImage" />
        <dc:title></dc:title>
      </cc:Work>
    </rdf:RDF>
  </metadata>
  <g
     inkscape:label="Layer 1"
     inkscape:groupmode="layer"
     id="layer1"
     transform="translate(-161.16429,-249.81686)">
    <g
       transform="scale(1.045037,0.95690393)"
       style="font-size:148.44168091px;font-style:normal;font-variant:normal;font-weight:normal;font-stretch:normal;line-height:125%;letter-spacing:0px;word-spacing:0px;fill:#000000;fill-opacity:1;stroke:none;font-family:Ubuntu;-inkscape-font-specification:Ubuntu"
       id="text5219">
      <path
         d="m 154.21874,327.56945 c 2.37375,5e-5 4.40171,-0.42049 6.08389,-1.26163 1.68216,-0.84103 3.09252,-1.92976 4.2311,-3.26619 1.13854,-1.33632 1.97963,-2.8705 2.52325,-4.60256 0.54359,-1.73194 0.8154,-3.48885 0.81542,-5.27075 l 0,-26.71841 c -2e-5,-4.05886 0.44544,-7.6716 1.33637,-10.83822 0.8909,-3.16642 2.42508,-5.8135 4.60256,-7.94123 2.17744,-2.12752 5.07215,-3.75986 8.68417,-4.89702 3.61195,-1.13693 8.09068,-1.70546 13.43622,-1.70558 l 0.59344,0 0,10.83596 c -5.6415,1e-4 -9.67478,1.01408 -12.09985,3.04195 -2.42513,2.02806 -3.63768,5.9126 -3.63765,11.65363 l 0,22.85879 c -3e-5,6.53243 -0.86603,11.57969 -2.598,15.14179 -1.73203,3.5622 -4.18054,6.33234 -7.34553,8.31043 3.16499,1.9812 5.6135,4.75285 7.34553,8.31497 1.73197,3.56218 2.59797,8.60944 2.598,15.14179 l 0,22.85879 c -3e-5,5.74111 1.21252,9.62565 3.63765,11.65363 2.42507,2.02795 6.45835,3.04193 12.09985,3.04195 l 0,10.83595 -0.59344,0 c -5.34554,-3e-5 -9.82427,-0.54439 -13.43622,-1.63309 -3.61202,-1.08876 -6.50673,-2.72185 -8.68417,-4.89929 -2.17748,-2.17747 -3.71166,-4.84946 -4.60256,-8.01597 -0.89093,-3.16654 -1.33639,-6.77776 -1.33637,-10.83369 l 0,-26.71842 c -2e-5,-1.7818 -0.27183,-3.53872 -0.81542,-5.27074 -0.54362,-1.73197 -1.38471,-3.26616 -2.52325,-4.60257 -1.13858,-1.33633 -2.54894,-2.42506 -4.2311,-3.26618 -1.68218,-0.84105 -3.71014,-1.26159 -6.08389,-1.26163 z"
         id="path5231"
         inkscape:connector-curvature="0" />
    </g>
    <g
       transform="scale(-1.045037,0.95690392)"
       style="font-size:148.44168091px;font-style:normal;font-variant:normal;font-weight:normal;font-stretch:normal;line-height:125%;letter-spacing:0px;word-spacing:0px;fill:#000000;fill-opacity:1;stroke:none;font-family:Ubuntu;-inkscape-font-specification:Ubuntu"
       id="text5223">
      <path
         d="m -274.99139,327.56945 c 2.37375,5e-5 4.40172,-0.42049 6.0839,-1.26163 1.68215,-0.84103 3.09252,-1.92976 4.23109,-3.26619 1.13854,-1.33632 1.97963,-2.8705 2.52326,-4.60256 0.54359,-1.73194 0.81539,-3.48885 0.81541,-5.27075 l 0,-26.71841 c -2e-5,-4.05886 0.44544,-7.6716 1.33637,-10.83822 0.8909,-3.16642 2.42508,-5.8135 4.60257,-7.94123 2.17743,-2.12752 5.07215,-3.75986 8.68416,-4.89702 3.61195,-1.13693 8.09068,-1.70546 13.43622,-1.70558 l 0.59344,0 0,10.83596 c -5.6415,1e-4 -9.67478,1.01408 -12.09985,3.04195 -2.42513,2.02806 -3.63768,5.9126 -3.63765,11.65363 l 0,22.85879 c -3e-5,6.53243 -0.86603,11.57969 -2.598,15.14179 -1.73203,3.5622 -4.18054,6.33234 -7.34553,8.31043 3.16499,1.9812 5.6135,4.75285 7.34553,8.31497 1.73197,3.56218 2.59797,8.60944 2.598,15.14179 l 0,22.85879 c -3e-5,5.74111 1.21252,9.62565 3.63765,11.65363 2.42507,2.02795 6.45835,3.04193 12.09985,3.04195 l 0,10.83595 -0.59344,0 c -5.34554,-3e-5 -9.82427,-0.54439 -13.43622,-1.63309 -3.61201,-1.08876 -6.50673,-2.72185 -8.68416,-4.89929 -2.17749,-2.17747 -3.71167,-4.84946 -4.60257,-8.01597 -0.89093,-3.16654 -1.33639,-6.77776 -1.33637,-10.83369 l 0,-26.71842 c -2e-5,-1.7818 -0.27182,-3.53872 -0.81541,-5.27074 -0.54363,-1.73197 -1.38472,-3.26616 -2.52326,-4.60257 -1.13857,-1.33633 -2.54894,-2.42506 -4.23109,-3.26618 -1.68218,-0.84105 -3.71015,-1.26159 -6.0839,-1.26163 z"
         id="path5228"
         inkscape:connector-curvature="0" />
    </g>
  </g>
</svg>
