<?xml version="1.0" encoding="utf-8"?>
<!-- Generator: Adobe Illustrator 18.1.1, SVG Export Plug-In . SVG Version: 6.00 Build 0)  -->
<!DOCTYPE svg PUBLIC "-//W3C//DTD SVG 1.1//EN" "http://www.w3.org/Graphics/SVG/1.1/DTD/svg11.dtd">
<svg version="1.1" id="Evernote" xmlns="http://www.w3.org/2000/svg" xmlns:xlink="http://www.w3.org/1999/xlink" x="0px" y="0px"
	 viewBox="0 0 20 20" enable-background="new 0 0 20 20" xml:space="preserve">
<g>
	<path d="M17.339,4.307c0-1.15-1.732-1.277-1.732-1.277l-4.069-0.256c0,0-0.087-1.107-0.909-1.492
		c-0.822-0.383-1.726-0.266-2.376-0.26C7.603,1.029,7.45,1.857,7.45,2.639c0,0.781,0.014,1.684,0.014,2.25
		c0,1.018-0.447,1.449-1.566,1.449H3.591C2.946,6.297,2.444,6.402,2.444,6.924c0,0.523,0.759,4.973,1.801,6
		c0.605,0.596,4.305,1.014,5.084,1.014c0.779,0,0.519-2.301,0.736-2.301c0.217,0,0.454,1.299,1.682,1.603
		c1.226,0.307,2.864,0.25,2.951,1.123c0.113,1.152,0.217,2.642-0.541,2.748l-1.716,0.068c-1.176-0.084-0.86-1.369-0.341-1.369
		s0.779-0.019,0.779-0.019l0.065-1.406c0,0-2.693-0.318-2.807,1.498c-0.105,1.66,0.18,2.443,0.389,2.613
		C10.735,18.668,11.097,19,14.395,19C19.042,19,17.339,5.457,17.339,4.307z M15.44,10.32C15.258,10.516,14.598,10,13.968,10
		c-0.631,0-1.311,0.334-1.471,0.113c-0.16-0.219,0.146-1.99,1.334-1.99S15.624,10.127,15.44,10.32z"/>
	<path d="M5.804,4.166c0-0.229,0.058-2.984,0.058-2.984l-3.505,3.44c0,0,2.422,0,2.898,0C5.731,4.621,5.804,4.393,5.804,4.166z"/>
</g>
</svg>
